SplineFontDB: 3.2
FontName: ovotext
FullName: ovotext
FamilyName: ovotext
Weight: Book
Copyright: Generated by Glyphter
Version: 1.0
ItalicAngle: 0
UnderlinePosition: 20
UnderlineWidth: 0
Ascent: 2048
Descent: 0
InvalidEm: 0
sfntRevision: 0x00010000
LayerCount: 2
Layer: 0 1 "Sfondo" 1
Layer: 1 1 "Fore" 0
XUID: [1021 614 -80589503 13117350]
StyleMap: 0x0040
FSType: 8
OS2Version: 1
OS2_WeightWidthSlopeOnly: 0
OS2_UseTypoMetrics: 0
CreationTime: 1580266967
ModificationTime: 1582807501
PfmFamily: 17
TTFWeight: 400
TTFWidth: 5
LineGap: 184
VLineGap: 0
Panose: 2 0 5 4 0 0 0 0 0 0
OS2TypoAscent: 2048
OS2TypoAOffset: 0
OS2TypoDescent: 0
OS2TypoDOffset: 0
OS2TypoLinegap: 184
OS2WinAscent: 2048
OS2WinAOffset: 0
OS2WinDescent: 0
OS2WinDOffset: 0
HheadAscent: 2048
HheadAOffset: 0
HheadDescent: 0
HheadDOffset: 0
OS2SubXSize: 1299
OS2SubYSize: 1433
OS2SubXOff: 0
OS2SubYOff: 286
OS2SupXSize: 1299
OS2SupYSize: 1433
OS2SupXOff: 0
OS2SupYOff: 983
OS2StrikeYSize: 100
OS2StrikeYPos: 528
OS2Vendor: 'PfEd'
OS2CodePages: 00000001.00000000
OS2UnicodeRanges: 00000000.00000000.00000000.00000000
MarkAttachClasses: 1
DEI: 91125
ShortTable: maxp 16
  1
  0
  52
  85
  12
  0
  0
  2
  0
  10
  10
  0
  255
  0
  0
  0
EndShort
LangName: 1033 "" "" "Regular" "ovotext" "" "Version 1.0" "" "" "" "" "Generated by svg2ttf from Fontello project." "http://fontello.com"
GaspTable: 1 65535 2 0
Encoding: UnicodeBmp
UnicodeInterp: none
NameList: AGL For New Fonts
DisplaySize: -48
AntiAlias: 1
FitToEm: 0
WidthSeparation: 307
WinInfo: 16 16 8
BeginPrivate: 0
EndPrivate
BeginChars: 65538 56

StartChar: zero
Encoding: 48 48 3
Width: 1952
GlyphClass: 2
Flags: W
HStem: 195 327<757.709 1191.61> 690 668<829.431 1121.71> 1526 327<751.443 1192.29>
VStem: 146 359<781.357 1264.2> 706 538<824.381 1228.16> 1445 359<784.643 1262.62>
CounterMasks: 1 fc
LayerCount: 2
Fore
SplineSet
146 1024 m 0,0,1
 146 1134 146 1134 176 1245 c 0,2,3
 205 1351 205 1351 259 1443 c 0,4,5
 312 1533 312 1533 389 1610 c 0,6,7
 465 1686 465 1686 556 1740 c 0,8,9
 649 1795 649 1795 755 1824 c 0,10,11
 862 1853 862 1853 975 1853 c 0,12,13
 1085 1853 1085 1853 1196 1823 c 0,14,15
 1302 1794 1302 1794 1394 1740 c 0,16,17
 1484 1687 1484 1687 1561 1610 c 0,18,19
 1637 1534 1637 1534 1691 1443 c 0,20,21
 1746 1350 1746 1350 1775 1244 c 0,22,23
 1804 1137 1804 1137 1804 1024 c 0,24,25
 1804 914 1804 914 1774 803 c 0,26,27
 1745 697 1745 697 1691 605 c 0,28,29
 1638 515 1638 515 1561 438 c 0,30,31
 1485 362 1485 362 1394 308 c 0,32,33
 1301 253 1301 253 1195 224 c 0,34,35
 1088 195 1088 195 975 195 c 0,36,37
 865 195 865 195 754 225 c 0,38,39
 648 254 648 254 556 308 c 0,40,41
 466 361 466 361 389 438 c 128,-1,42
 312 515 312 515 259 605 c 0,43,44
 205 696 205 696 175.5 803.5 c 128,-1,45
 146 911 146 911 146 1024 c 0,0,1
505 1018 m 0,46,47
 505 784 505 784 635 655 c 1,48,49
 763 522 763 522 975 522 c 0,50,51
 1186 522 1186 522 1315 655 c 0,52,53
 1445 789 1445 789 1445 1024 c 0,54,55
 1445 1258 1445 1258 1315 1393 c 0,56,57
 1187 1526 1187 1526 975 1526 c 0,58,59
 857 1526 857 1526 764 1487 c 0,60,61
 695 1458 695 1458 641 1400 c 0,62,63
 582 1341 582 1341 551 1267 c 0,64,65
 505 1160 505 1160 505 1018 c 0,46,47
706 1024 m 0,66,67
 706 1187 706 1187 781 1272.5 c 128,-1,68
 856 1358 856 1358 975 1358 c 0,69,70
 1098 1358 1098 1358 1169 1277 c 0,71,72
 1244 1191 1244 1191 1244 1027 c 0,73,74
 1244 856 1244 856 1169 775 c 0,75,76
 1090 690 1090 690 975 690 c 0,77,78
 859 690 859 690 784 775 c 0,79,80
 706 863 706 863 706 1024 c 0,66,67
EndSplineSet
EndChar

StartChar: one
Encoding: 49 49 4
Width: 1952
GlyphClass: 2
Flags: W
HStem: 195 349<918.844 1100.38> 1516 337<932.818 1100.38>
VStem: 146 534<1102 1287.47> 1101 703<754.043 1293.96>
LayerCount: 2
Fore
SplineSet
146 1024 m 128,-1,1
 146 1137 146 1137 175.5 1244.5 c 128,-1,2
 205 1352 205 1352 258.5 1442.5 c 128,-1,3
 312 1533 312 1533 389 1610 c 128,-1,4
 466 1687 466 1687 556.5 1740.5 c 128,-1,5
 647 1794 647 1794 754.5 1823.5 c 128,-1,6
 862 1853 862 1853 975 1853 c 128,-1,7
 1088 1853 1088 1853 1195.5 1823.5 c 128,-1,8
 1303 1794 1303 1794 1393.5 1740.5 c 128,-1,9
 1484 1687 1484 1687 1561 1610 c 128,-1,10
 1638 1533 1638 1533 1691.5 1442.5 c 128,-1,11
 1745 1352 1745 1352 1774.5 1244.5 c 128,-1,12
 1804 1137 1804 1137 1804 1024 c 128,-1,13
 1804 911 1804 911 1774.5 803.5 c 128,-1,14
 1745 696 1745 696 1691.5 605.5 c 128,-1,15
 1638 515 1638 515 1561 438 c 128,-1,16
 1484 361 1484 361 1393.5 307.5 c 128,-1,17
 1303 254 1303 254 1195.5 224.5 c 128,-1,18
 1088 195 1088 195 975 195 c 128,-1,19
 862 195 862 195 754.5 224.5 c 128,-1,20
 647 254 647 254 556.5 307.5 c 128,-1,21
 466 361 466 361 389 438 c 128,-1,22
 312 515 312 515 258.5 605.5 c 128,-1,23
 205 696 205 696 175.5 803.5 c 128,-1,0
 146 911 146 911 146 1024 c 128,-1,1
1101 544 m 1,24,-1
 1101 1516 l 1,25,-1
 952 1516 l 1,26,27
 923 1429 923 1429 836 1361 c 0,28,29
 743 1290 743 1290 680 1273 c 1,30,-1
 680 1102 l 1,31,32
 826 1154 826 1154 917 1244 c 1,33,-1
 917 544 l 1,34,-1
 1101 544 l 1,24,-1
EndSplineSet
EndChar

StartChar: two
Encoding: 50 50 5
Width: 1952
GlyphClass: 2
Flags: W
HStem: 195 362<705.043 1244.96> 1529 324<814.509 1177.49>
VStem: 862 256<1225.91 1336.93> 1302 502<999.667 1293.55>
LayerCount: 2
Fore
SplineSet
146 1024 m 128,-1,1
 146 1137 146 1137 175.5 1244.5 c 128,-1,2
 205 1352 205 1352 258.5 1442.5 c 128,-1,3
 312 1533 312 1533 389 1610 c 128,-1,4
 466 1687 466 1687 556.5 1740.5 c 128,-1,5
 647 1794 647 1794 754.5 1823.5 c 128,-1,6
 862 1853 862 1853 975 1853 c 128,-1,7
 1088 1853 1088 1853 1195.5 1823.5 c 128,-1,8
 1303 1794 1303 1794 1393.5 1740.5 c 128,-1,9
 1484 1687 1484 1687 1561 1610 c 128,-1,10
 1638 1533 1638 1533 1691.5 1442.5 c 128,-1,11
 1745 1352 1745 1352 1774.5 1244.5 c 128,-1,12
 1804 1137 1804 1137 1804 1024 c 128,-1,13
 1804 911 1804 911 1774.5 803.5 c 128,-1,14
 1745 696 1745 696 1691.5 605.5 c 128,-1,15
 1638 515 1638 515 1561 438 c 128,-1,16
 1484 361 1484 361 1393.5 307.5 c 128,-1,17
 1303 254 1303 254 1195.5 224.5 c 128,-1,18
 1088 195 1088 195 975 195 c 128,-1,19
 862 195 862 195 754.5 224.5 c 128,-1,20
 647 254 647 254 556.5 307.5 c 128,-1,21
 466 361 466 361 389 438 c 128,-1,22
 312 515 312 515 258.5 605.5 c 128,-1,23
 205 696 205 696 175.5 803.5 c 128,-1,0
 146 911 146 911 146 1024 c 128,-1,1
1302 729 m 1,24,-1
 936 729 l 1,25,26
 956 762 956 762 972 781 c 0,27,28
 979 788 979 788 993.5 802 c 128,-1,29
 1008 816 1008 816 1035 841.5 c 128,-1,30
 1062 867 1062 867 1085 888 c 0,31,32
 1163 958 1163 958 1205 1011 c 0,33,34
 1250 1065 1250 1065 1280 1134 c 0,35,36
 1302 1188 1302 1188 1302 1257 c 0,37,38
 1302 1376 1302 1376 1221 1452 c 0,39,40
 1139 1529 1139 1529 998 1529 c 0,41,42
 863 1529 863 1529 781 1461 c 1,43,44
 677 1376 677 1376 677 1225 c 1,45,-1
 862 1225 l 1,46,47
 862 1304 862 1304 900 1338 c 0,48,49
 940 1374 940 1374 991 1374 c 0,50,51
 1053 1374 1053 1374 1085 1342 c 0,52,53
 1118 1303 1118 1303 1118 1248 c 0,54,55
 1118 1189 1118 1189 1079 1131 c 0,56,57
 1054 1098 1054 1098 926 975 c 0,58,59
 777 835 777 835 716 742 c 0,60,61
 654 647 654 647 654 557 c 1,62,-1
 1302 557 l 1,63,-1
 1302 729 l 1,24,-1
EndSplineSet
EndChar

StartChar: three
Encoding: 51 51 6
Width: 1952
GlyphClass: 2
Flags: W
HStem: 195 343<816.296 1159.59> 694 311<911.343 1083.68> 1143 231<930.25 1041.84> 1529 324<814.915 1149.58>
VStem: 855 227<1244.79 1340.48> 1270 534<889.022 1293.88> 1312 492<754.998 1158.98>
LayerCount: 2
Fore
SplineSet
146 1024 m 128,-1,1
 146 1137 146 1137 175.5 1244.5 c 128,-1,2
 205 1352 205 1352 258.5 1442.5 c 128,-1,3
 312 1533 312 1533 389 1610 c 128,-1,4
 466 1687 466 1687 556.5 1740.5 c 128,-1,5
 647 1794 647 1794 754.5 1823.5 c 128,-1,6
 862 1853 862 1853 975 1853 c 128,-1,7
 1088 1853 1088 1853 1195.5 1823.5 c 128,-1,8
 1303 1794 1303 1794 1393.5 1740.5 c 128,-1,9
 1484 1687 1484 1687 1561 1610 c 128,-1,10
 1638 1533 1638 1533 1691.5 1442.5 c 128,-1,11
 1745 1352 1745 1352 1774.5 1244.5 c 128,-1,12
 1804 1137 1804 1137 1804 1024 c 128,-1,13
 1804 911 1804 911 1774.5 803.5 c 128,-1,14
 1745 696 1745 696 1691.5 605.5 c 128,-1,15
 1638 515 1638 515 1561 438 c 128,-1,16
 1484 361 1484 361 1393.5 307.5 c 128,-1,17
 1303 254 1303 254 1195.5 224.5 c 128,-1,18
 1088 195 1088 195 975 195 c 128,-1,19
 862 195 862 195 754.5 224.5 c 128,-1,20
 647 254 647 254 556.5 307.5 c 128,-1,21
 466 361 466 361 389 438 c 128,-1,22
 312 515 312 515 258.5 605.5 c 128,-1,23
 205 696 205 696 175.5 803.5 c 128,-1,0
 146 911 146 911 146 1024 c 128,-1,1
670 813 m 1,24,25
 686 687 686 687 771 616 c 0,26,27
 858 538 858 538 988 538 c 0,28,29
 1126 538 1126 538 1221 629 c 0,30,31
 1312 719 1312 719 1312 846 c 0,32,33
 1312 937 1312 937 1263 995 c 0,34,35
 1216 1056 1216 1056 1131 1076 c 1,36,37
 1270 1153 1270 1153 1270 1280 c 0,38,39
 1270 1369 1270 1369 1202 1442 c 0,40,41
 1119 1529 1119 1529 981 1529 c 0,42,43
 899 1529 899 1529 839 1497 c 0,44,45
 770 1465 770 1465 738 1416 c 0,46,47
 700 1356 700 1356 687 1273 c 1,48,-1
 855 1244 l 1,49,50
 865 1309 865 1309 897.5 1341.5 c 128,-1,51
 930 1374 930 1374 978 1374 c 0,52,53
 1028 1374 1028 1374 1053 1345 c 0,54,55
 1082 1316 1082 1316 1082 1267 c 0,56,57
 1082 1210 1082 1210 1043 1176 c 0,58,59
 1016 1152 1016 1152 946 1143 c 0,60,61
 938 1142 938 1142 930 1143 c 1,62,-1
 910 992 l 1,63,64
 953 1005 953 1005 994 1005 c 0,65,66
 1046 1005 1046 1005 1085 966 c 0,67,68
 1124 922 1124 922 1124 856 c 0,69,70
 1124 779 1124 779 1085 736 c 0,71,72
 1043 694 1043 694 988 694 c 0,73,74
 938 694 938 694 897 729 c 1,75,76
 862 765 862 765 852 836 c 1,77,-1
 670 813 l 1,24,25
EndSplineSet
EndChar

StartChar: four
Encoding: 52 52 7
Width: 1952
GlyphClass: 2
Flags: W
HStem: 1529 324<1007 1161.77>
VStem: 146 443<757.282 914> 1286 518<757.282 917>
LayerCount: 2
Fore
SplineSet
146 1024 m 128,-1,1
 146 1137 146 1137 175.5 1244.5 c 128,-1,2
 205 1352 205 1352 258.5 1442.5 c 128,-1,3
 312 1533 312 1533 389 1610 c 128,-1,4
 466 1687 466 1687 556.5 1740.5 c 128,-1,5
 647 1794 647 1794 754.5 1823.5 c 128,-1,6
 862 1853 862 1853 975 1853 c 128,-1,7
 1088 1853 1088 1853 1195.5 1823.5 c 128,-1,8
 1303 1794 1303 1794 1393.5 1740.5 c 128,-1,9
 1484 1687 1484 1687 1561 1610 c 128,-1,10
 1638 1533 1638 1533 1691.5 1442.5 c 128,-1,11
 1745 1352 1745 1352 1774.5 1244.5 c 128,-1,12
 1804 1137 1804 1137 1804 1024 c 128,-1,13
 1804 911 1804 911 1774.5 803.5 c 128,-1,14
 1745 696 1745 696 1691.5 605.5 c 128,-1,15
 1638 515 1638 515 1561 438 c 128,-1,16
 1484 361 1484 361 1393.5 307.5 c 128,-1,17
 1303 254 1303 254 1195.5 224.5 c 128,-1,18
 1088 195 1088 195 975 195 c 128,-1,19
 862 195 862 195 754.5 224.5 c 128,-1,20
 647 254 647 254 556.5 307.5 c 128,-1,21
 466 361 466 361 389 438 c 128,-1,22
 312 515 312 515 258.5 605.5 c 128,-1,23
 205 696 205 696 175.5 803.5 c 128,-1,0
 146 911 146 911 146 1024 c 128,-1,1
985 561 m 1,24,-1
 1163 561 l 1,25,-1
 1163 755 l 1,26,-1
 1286 755 l 1,27,-1
 1286 917 l 1,28,-1
 1163 917 l 1,29,-1
 1163 1529 l 1,30,-1
 1007 1529 l 1,31,-1
 589 914 l 1,32,-1
 589 755 l 1,33,-1
 985 755 l 1,34,-1
 985 561 l 1,24,-1
985 917 m 1,35,-1
 764 917 l 1,36,-1
 985 1248 l 1,37,-1
 985 917 l 1,35,-1
EndSplineSet
EndChar

StartChar: five
Encoding: 53 53 8
Width: 1952
GlyphClass: 2
Flags: W
HStem: 195 327<795.538 1148.79> 671 369<878.488 1073.74> 1186 136<913 1169.21> 1494 359<774 1244.96>
VStem: 1305 499<753.696 1044.5>
LayerCount: 2
Fore
SplineSet
146 1024 m 128,-1,1
 146 1137 146 1137 175.5 1244.5 c 128,-1,2
 205 1352 205 1352 258.5 1442.5 c 128,-1,3
 312 1533 312 1533 389 1610 c 128,-1,4
 466 1687 466 1687 556.5 1740.5 c 128,-1,5
 647 1794 647 1794 754.5 1823.5 c 128,-1,6
 862 1853 862 1853 975 1853 c 128,-1,7
 1088 1853 1088 1853 1195.5 1823.5 c 128,-1,8
 1303 1794 1303 1794 1393.5 1740.5 c 128,-1,9
 1484 1687 1484 1687 1561 1610 c 128,-1,10
 1638 1533 1638 1533 1691.5 1442.5 c 128,-1,11
 1745 1352 1745 1352 1774.5 1244.5 c 128,-1,12
 1804 1137 1804 1137 1804 1024 c 128,-1,13
 1804 911 1804 911 1774.5 803.5 c 128,-1,14
 1745 696 1745 696 1691.5 605.5 c 128,-1,15
 1638 515 1638 515 1561 438 c 128,-1,16
 1484 361 1484 361 1393.5 307.5 c 128,-1,17
 1303 254 1303 254 1195.5 224.5 c 128,-1,18
 1088 195 1088 195 975 195 c 128,-1,19
 862 195 862 195 754.5 224.5 c 128,-1,20
 647 254 647 254 556.5 307.5 c 128,-1,21
 466 361 466 361 389 438 c 128,-1,22
 312 515 312 515 258.5 605.5 c 128,-1,23
 205 696 205 696 175.5 803.5 c 128,-1,0
 146 911 146 911 146 1024 c 128,-1,1
657 787 m 1,24,25
 672 664 672 664 758 593 c 0,26,27
 839 522 839 522 975 522 c 0,28,29
 1145 522 1145 522 1237 648 c 0,30,31
 1305 745 1305 745 1305 862 c 0,32,33
 1305 1009 1305 1009 1221 1099 c 1,34,35
 1134 1186 1134 1186 1011 1186 c 0,36,37
 947 1186 947 1186 884 1157 c 1,38,-1
 913 1322 l 1,39,-1
 1263 1322 l 1,40,-1
 1263 1494 l 1,41,-1
 774 1494 l 1,42,-1
 680 992 l 1,43,-1
 829 969 l 1,44,45
 891 1040 891 1040 972 1040 c 0,46,47
 1035 1040 1035 1040 1075 995 c 1,48,49
 1118 953 1118 953 1118 862 c 0,50,51
 1118 763 1118 763 1075 716 c 0,52,53
 1035 671 1035 671 978 671 c 0,54,55
 927 671 927 671 888 706 c 0,56,57
 842 747 842 747 842 807 c 1,58,-1
 657 787 l 1,24,25
EndSplineSet
EndChar

StartChar: six
Encoding: 54 54 9
Width: 1952
GlyphClass: 2
Flags: W
HStem: 195 327<825.726 1155.67> 674 356<910.506 1080.72> 1167 191<905.468 1075.24> 1510 343<836.401 1165.5>
VStem: 146 508<755.275 1292.01> 862 256<722.801 983.552> 1299 505<753.966 1080.5>
LayerCount: 2
Fore
SplineSet
146 1024 m 128,-1,1
 146 1137 146 1137 175.5 1244.5 c 128,-1,2
 205 1352 205 1352 258.5 1442.5 c 128,-1,3
 312 1533 312 1533 389 1610 c 128,-1,4
 466 1687 466 1687 556.5 1740.5 c 128,-1,5
 647 1794 647 1794 754.5 1823.5 c 128,-1,6
 862 1853 862 1853 975 1853 c 128,-1,7
 1088 1853 1088 1853 1195.5 1823.5 c 128,-1,8
 1303 1794 1303 1794 1393.5 1740.5 c 128,-1,9
 1484 1687 1484 1687 1561 1610 c 128,-1,10
 1638 1533 1638 1533 1691.5 1442.5 c 128,-1,11
 1745 1352 1745 1352 1774.5 1244.5 c 128,-1,12
 1804 1137 1804 1137 1804 1024 c 128,-1,13
 1804 911 1804 911 1774.5 803.5 c 128,-1,14
 1745 696 1745 696 1691.5 605.5 c 128,-1,15
 1638 515 1638 515 1561 438 c 128,-1,16
 1484 361 1484 361 1393.5 307.5 c 128,-1,17
 1303 254 1303 254 1195.5 224.5 c 128,-1,18
 1088 195 1088 195 975 195 c 128,-1,19
 862 195 862 195 754.5 224.5 c 128,-1,20
 647 254 647 254 556.5 307.5 c 128,-1,21
 466 361 466 361 389 438 c 128,-1,22
 312 515 312 515 258.5 605.5 c 128,-1,23
 205 696 205 696 175.5 803.5 c 128,-1,0
 146 911 146 911 146 1024 c 128,-1,1
1283 1270 m 1,24,25
 1259 1388 1259 1388 1189 1448 c 0,26,27
 1118 1510 1118 1510 1007 1510 c 0,28,29
 849 1510 849 1510 751.5 1393.5 c 128,-1,30
 654 1277 654 1277 654 1008 c 0,31,32
 654 748 654 748 748 635 c 256,33,34
 842 522 842 522 988 522 c 0,35,36
 1126 522 1126 522 1212 613 c 0,37,38
 1299 700 1299 700 1299 849 c 0,39,40
 1299 985 1299 985 1215 1079 c 0,41,42
 1132 1167 1132 1167 1017 1167 c 0,43,44
 912 1167 912 1167 845 1086 c 1,45,46
 845 1255 845 1255 897 1306 c 0,47,48
 950 1358 950 1358 994 1358 c 128,-1,49
 1038 1358 1038 1358 1069 1332 c 1,50,51
 1101 1298 1101 1298 1101 1248 c 1,52,-1
 1283 1270 l 1,24,25
862 865 m 0,53,54
 862 942 862 942 897 988 c 1,55,56
 935 1030 935 1030 988 1030 c 128,-1,57
 1041 1030 1041 1030 1082 985 c 1,58,59
 1118 939 1118 939 1118 849 c 0,60,61
 1118 753 1118 753 1085 716 c 0,62,63
 1043 674 1043 674 998 674 c 0,64,65
 942 674 942 674 904 726 c 1,66,67
 862 773 862 773 862 865 c 0,53,54
EndSplineSet
EndChar

StartChar: seven
Encoding: 55 55 10
Width: 1952
GlyphClass: 2
Flags: W
HStem: 195 314<829.056 1003.16> 1461 392<705.043 1244.96>
LayerCount: 2
Fore
SplineSet
146 1024 m 128,-1,1
 146 1137 146 1137 175.5 1244.5 c 128,-1,2
 205 1352 205 1352 258.5 1442.5 c 128,-1,3
 312 1533 312 1533 389 1610 c 128,-1,4
 466 1687 466 1687 556.5 1740.5 c 128,-1,5
 647 1794 647 1794 754.5 1823.5 c 128,-1,6
 862 1853 862 1853 975 1853 c 128,-1,7
 1088 1853 1088 1853 1195.5 1823.5 c 128,-1,8
 1303 1794 1303 1794 1393.5 1740.5 c 128,-1,9
 1484 1687 1484 1687 1561 1610 c 128,-1,10
 1638 1533 1638 1533 1691.5 1442.5 c 128,-1,11
 1745 1352 1745 1352 1774.5 1244.5 c 128,-1,12
 1804 1137 1804 1137 1804 1024 c 128,-1,13
 1804 911 1804 911 1774.5 803.5 c 128,-1,14
 1745 696 1745 696 1691.5 605.5 c 128,-1,15
 1638 515 1638 515 1561 438 c 128,-1,16
 1484 361 1484 361 1393.5 307.5 c 128,-1,17
 1303 254 1303 254 1195.5 224.5 c 128,-1,18
 1088 195 1088 195 975 195 c 128,-1,19
 862 195 862 195 754.5 224.5 c 128,-1,20
 647 254 647 254 556.5 307.5 c 128,-1,21
 466 361 466 361 389 438 c 128,-1,22
 312 515 312 515 258.5 605.5 c 128,-1,23
 205 696 205 696 175.5 803.5 c 128,-1,0
 146 911 146 911 146 1024 c 128,-1,1
693 1290 m 1,24,-1
 1118 1290 l 1,25,26
 995 1139 995 1139 907 917 c 0,27,28
 826 713 826 713 826 509 c 1,29,-1
 1004 509 l 1,30,31
 1004 642 1004 642 1046 797 c 1,32,33
 1084 961 1084 961 1169 1105 c 0,34,35
 1254 1255 1254 1255 1328 1329 c 1,36,-1
 1328 1461 l 1,37,-1
 693 1461 l 1,38,-1
 693 1290 l 1,24,-1
EndSplineSet
EndChar

StartChar: eight
Encoding: 56 56 11
Width: 1952
GlyphClass: 2
Flags: W
HStem: 195 333<801.358 1154.53> 677 315<879.316 1070.68> 1137 234<889.006 1055> 1520 333<794.611 1147.97>
VStem: 146 537<889.022 1293.66> 146 511<753.54 1158.98> 839 269<720.475 947.558> 858 230<1170.91 1337.09> 1260 544<889.022 1293.17> 1293 511<753.561 1158.98>
LayerCount: 2
Fore
SplineSet
146 1024 m 128,-1,1
 146 1137 146 1137 175.5 1244.5 c 128,-1,2
 205 1352 205 1352 258.5 1442.5 c 128,-1,3
 312 1533 312 1533 389 1610 c 128,-1,4
 466 1687 466 1687 556.5 1740.5 c 128,-1,5
 647 1794 647 1794 754.5 1823.5 c 128,-1,6
 862 1853 862 1853 975 1853 c 128,-1,7
 1088 1853 1088 1853 1195.5 1823.5 c 128,-1,8
 1303 1794 1303 1794 1393.5 1740.5 c 128,-1,9
 1484 1687 1484 1687 1561 1610 c 128,-1,10
 1638 1533 1638 1533 1691.5 1442.5 c 128,-1,11
 1745 1352 1745 1352 1774.5 1244.5 c 128,-1,12
 1804 1137 1804 1137 1804 1024 c 128,-1,13
 1804 911 1804 911 1774.5 803.5 c 128,-1,14
 1745 696 1745 696 1691.5 605.5 c 128,-1,15
 1638 515 1638 515 1561 438 c 128,-1,16
 1484 361 1484 361 1393.5 307.5 c 128,-1,17
 1303 254 1303 254 1195.5 224.5 c 128,-1,18
 1088 195 1088 195 975 195 c 128,-1,19
 862 195 862 195 754.5 224.5 c 128,-1,20
 647 254 647 254 556.5 307.5 c 128,-1,21
 466 361 466 361 389 438 c 128,-1,22
 312 515 312 515 258.5 605.5 c 128,-1,23
 205 696 205 696 175.5 803.5 c 128,-1,0
 146 911 146 911 146 1024 c 128,-1,1
819 1069 m 1,24,25
 738 1035 738 1035 696 969 c 0,26,27
 657 901 657 901 657 823 c 0,28,29
 657 684 657 684 761 600 c 0,30,31
 847 528 847 528 981 528 c 0,32,33
 1119 528 1119 528 1208 613 c 0,34,35
 1293 697 1293 697 1293 833 c 0,36,37
 1293 915 1293 915 1250.5 975.5 c 128,-1,38
 1208 1036 1208 1036 1127 1069 c 1,39,40
 1192 1099 1192 1099 1224 1150 c 1,41,42
 1260 1199 1260 1199 1260 1270 c 0,43,44
 1260 1374 1260 1374 1186 1448 c 1,45,46
 1104 1520 1104 1520 972 1520 c 0,47,48
 834 1520 834 1520 758 1448 c 0,49,50
 683 1379 683 1379 683 1270 c 0,51,52
 683 1205 683 1205 716 1154 c 1,53,54
 746 1099 746 1099 819 1069 c 1,24,25
858 1257 m 0,55,56
 858 1309 858 1309 888 1338 c 0,57,58
 920 1371 920 1371 975 1371 c 0,59,60
 1027 1371 1027 1371 1056 1342 c 1,61,62
 1088 1303 1088 1303 1088 1257 c 0,63,64
 1088 1202 1088 1202 1056 1169.5 c 128,-1,65
 1024 1137 1024 1137 972 1137 c 128,-1,66
 920 1137 920 1137 888 1170 c 0,67,68
 858 1199 858 1199 858 1257 c 0,55,56
839 843 m 0,69,70
 839 892 839 892 875 943 c 1,71,72
 904 992 904 992 975 992 c 0,73,74
 1030 992 1030 992 1072 949 c 1,75,76
 1108 903 1108 903 1108 839 c 0,77,78
 1108 766 1108 766 1072 719 c 0,79,80
 1035 677 1035 677 975 677 c 0,81,82
 920 677 920 677 878 719 c 0,83,84
 839 763 839 763 839 843 c 0,69,70
EndSplineSet
EndChar

StartChar: nine
Encoding: 57 57 12
Width: 1952
GlyphClass: 2
Flags: W
HStem: 195 333<785.331 1114.4> 684 191<869.93 1047.68> 1011 353<872.283 1046.59> 1520 333<797.066 1124.27>
VStem: 146 505<1016.76 1293.63> 836 252<1057.29 1314.46> 1299 505<754.834 1293.68>
LayerCount: 2
Fore
SplineSet
146 1024 m 128,-1,1
 146 1137 146 1137 175.5 1244.5 c 128,-1,2
 205 1352 205 1352 258.5 1442.5 c 128,-1,3
 312 1533 312 1533 389 1610 c 128,-1,4
 466 1687 466 1687 556.5 1740.5 c 128,-1,5
 647 1794 647 1794 754.5 1823.5 c 128,-1,6
 862 1853 862 1853 975 1853 c 128,-1,7
 1088 1853 1088 1853 1195.5 1823.5 c 128,-1,8
 1303 1794 1303 1794 1393.5 1740.5 c 128,-1,9
 1484 1687 1484 1687 1561 1610 c 128,-1,10
 1638 1533 1638 1533 1691.5 1442.5 c 128,-1,11
 1745 1352 1745 1352 1774.5 1244.5 c 128,-1,12
 1804 1137 1804 1137 1804 1024 c 128,-1,13
 1804 911 1804 911 1774.5 803.5 c 128,-1,14
 1745 696 1745 696 1691.5 605.5 c 128,-1,15
 1638 515 1638 515 1561 438 c 128,-1,16
 1484 361 1484 361 1393.5 307.5 c 128,-1,17
 1303 254 1303 254 1195.5 224.5 c 128,-1,18
 1088 195 1088 195 975 195 c 128,-1,19
 862 195 862 195 754.5 224.5 c 128,-1,20
 647 254 647 254 556.5 307.5 c 128,-1,21
 466 361 466 361 389 438 c 128,-1,22
 312 515 312 515 258.5 605.5 c 128,-1,23
 205 696 205 696 175.5 803.5 c 128,-1,0
 146 911 146 911 146 1024 c 128,-1,1
674 771 m 1,24,25
 693 648 693 648 761 590 c 0,26,27
 838 528 838 528 946 528 c 0,28,29
 1103 528 1103 528 1199 648 c 1,30,31
 1299 763 1299 763 1299 1030 c 0,32,33
 1299 1290 1299 1290 1202 1406 c 0,34,35
 1108 1520 1108 1520 962 1520 c 0,36,37
 829 1520 829 1520 738 1429 c 0,38,39
 651 1337 651 1337 651 1192 c 0,40,41
 651 1052 651 1052 735 962 c 0,42,43
 818 875 818 875 933 875 c 0,44,45
 1038 875 1038 875 1105 956 c 1,46,47
 1105 789 1105 789 1056 736 c 0,48,49
 1008 684 1008 684 959 684 c 0,50,51
 913 684 913 684 888 710 c 1,52,53
 852 735 852 735 852 791 c 1,54,-1
 674 771 l 1,24,25
1088 1176 m 0,55,56
 1088 1094 1088 1094 1053 1053 c 0,57,58
 1020 1011 1020 1011 962 1011 c 0,59,60
 912 1011 912 1011 871 1056 c 0,61,62
 836 1097 836 1097 836 1192 c 0,63,64
 836 1284 836 1284 868 1325 c 0,65,66
 902 1364 902 1364 952 1364 c 0,67,68
 1006 1364 1006 1364 1050 1316 c 1,69,70
 1088 1267 1088 1267 1088 1176 c 0,55,56
EndSplineSet
EndChar

StartChar: A
Encoding: 65 65 13
Width: 2151
GlyphClass: 2
Flags: W
HStem: 110 115<264 1876> 801 231<724 1416> 1492 461<264 1876>
VStem: 148 116<225 1492> 1876 116<225 1492>
LayerCount: 2
Fore
SplineSet
148 1953 m 1,0,1
 148 1953 148 1953 1992 1953 c 1,2,-1
 1992 110 l 1,3,-1
 148 110 l 1,4,-1
 148 1032 l 2,5,6
 148 1838 148 1838 148 1953 c 1,0,1
264 1492 m 1,7,-1
 264 225 l 1,8,-1
 1876 225 l 1,9,-1
 1876 1492 l 1,10,-1
 1070 1492 l 2,11,12
 364 1492 364 1492 264 1492 c 1,7,-1
724 1032 m 1,13,-1
 1416 1032 l 1,14,-1
 1416 801 l 1,15,-1
 724 801 l 1,16,-1
 724 916 l 2,17,18
 724 1017 724 1017 724 1032 c 1,13,-1
EndSplineSet
EndChar

StartChar: B
Encoding: 66 66 14
Width: 1899
GlyphClass: 2
Flags: W
HStem: 110 115<263 1184> 340 116<1184 1415 1530 1760> 1838 115<263 1184>
VStem: 148 115<225 1838> 1415 115<110 340 456 686> 1645 115<686 1377>
LayerCount: 2
Fore
SplineSet
148 1953 m 5,0,1
 148 1953 148 1953 1300 1953 c 5,2,-1
 1301 1953 l 5,3,-1
 1760 1494 l 5,4,-1
 1760 686 l 5,5,-1
 1645 686 l 5,6,-1
 1645 1377 l 5,7,-1
 1184 1377 l 5,8,-1
 1184 1838 l 5,9,-1
 263 1838 l 5,10,-1
 263 225 l 5,11,-1
 1184 225 l 5,12,-1
 1184 110 l 5,13,-1
 148 110 l 5,14,-1
 148 1032 l 6,15,16
 148 1838 148 1838 148 1953 c 5,0,1
1415 686 m 5,17,-1
 1530 686 l 5,18,-1
 1530 456 l 5,19,-1
 1760 456 l 5,20,-1
 1760 340 l 5,21,-1
 1530 340 l 5,22,-1
 1530 110 l 5,23,-1
 1415 110 l 5,24,-1
 1415 340 l 5,25,-1
 1184 340 l 5,26,-1
 1184 456 l 5,27,-1
 1415 456 l 5,28,-1
 1415 571 l 6,29,30
 1415 672 1415 672 1415 686 c 5,17,-1
EndSplineSet
EndChar

StartChar: C
Encoding: 67 67 15
Width: 2150
GlyphClass: 2
Flags: W
HStem: 110 115<264 1876> 1377 346<1187 1876> 1933 20G<148 977>
VStem: 148 116<225 1147> 1876 116<225 1377>
LayerCount: 2
Fore
SplineSet
148 1953 m 1,0,1
 148 1953 148 1953 955 1953 c 1,2,-1
 957 1953 l 1,3,-1
 1187 1723 l 1,4,-1
 1992 1723 l 1,5,-1
 1992 110 l 1,6,-1
 148 110 l 1,7,-1
 148 1896 l 2,8,9
 148 1946 148 1946 148 1953 c 1,0,1
841 1377 m 1,10,-1
 611 1147 l 1,11,-1
 609 1149 l 1,12,-1
 609 1147 l 1,13,-1
 264 1147 l 1,14,-1
 264 225 l 1,15,-1
 1876 225 l 1,16,-1
 1876 1377 l 1,17,-1
 1358 1377 l 2,18,19
 904 1377 904 1377 841 1377 c 1,10,-1
EndSplineSet
EndChar

StartChar: D
Encoding: 68 68 16
Width: 2147
GlyphClass: 2
Flags: W
HStem: 112 113<262 492 607 1529 1644 1874> 916 116<607 1529> 1262 115<722 1172> 1838 115<262 607 722 1172 1529 1563>
VStem: 148 114<225 1838> 492 115<225 916> 607 115<1377 1838> 1172 357<1377 1838> 1529 115<225 916> 1874 116<225 1527>
LayerCount: 2
Fore
SplineSet
148 1953 m 1,0,1
 1610 1953 l 1,2,-1
 1612 1953 l 1,3,-1
 1990 1575 l 1,4,-1
 1990 1573 l 1,5,-1
 1990 112 l 1,6,-1
 148 112 l 1,7,-1
 148 1953 l 1,0,1
262 1838 m 1,8,-1
 262 225 l 1,9,-1
 492 225 l 1,10,-1
 492 1032 l 1,11,-1
 1644 1032 l 1,12,-1
 1644 225 l 1,13,-1
 1874 225 l 1,14,-1
 1874 1527 l 1,15,-1
 1563 1838 l 1,16,-1
 1529 1838 l 1,17,-1
 1529 1262 l 1,18,-1
 607 1262 l 1,19,-1
 607 1838 l 1,20,-1
 434 1838 l 2,21,22
 283 1838 283 1838 262 1838 c 1,8,-1
722 1838 m 1,23,-1
 722 1377 l 1,24,-1
 1172 1377 l 1,25,-1
 1172 1838 l 1,26,-1
 948 1838 l 2,27,28
 751 1838 751 1838 722 1838 c 1,23,-1
607 916 m 1,29,-1
 607 225 l 1,30,-1
 1529 225 l 1,31,-1
 1529 916 l 1,32,-1
 1068 916 l 2,33,34
 665 916 665 916 607 916 c 1,29,-1
EndSplineSet
EndChar

StartChar: E
Encoding: 69 69 17
Width: 2011
GlyphClass: 2
Flags: W
HStem: 112 108<246 462 570 1004 1114 1330> 544 110<570 1004> 654 108<1548 1764> 870 108<570 788> 1303 108<246 462 570 788 1114 1177> 1521 432<570 680 896 1004 1222 1548> 1845 108<680 896 1004 1222 1548 1611>
VStem: 138 108<220 1303> 462 108<220 544 978 1303> 570 110<1521 1845> 788 326<978 1303> 896 108<1521 1845> 1004 110<220 544> 1222 326<1521 1845> 1330 108<220 1150> 1764 108<762 1692>
LayerCount: 2
Fore
SplineSet
570 1953 m 1,0,1
 1656 1953 l 1,2,-1
 1872 1737 l 1,3,-1
 1872 654 l 1,4,-1
 1548 654 l 1,5,-1
 1548 762 l 1,6,-1
 1764 762 l 1,7,-1
 1764 1692 l 1,8,-1
 1611 1845 l 1,9,-1
 1548 1845 l 1,10,-1
 1548 1521 l 1,11,-1
 1222 1521 l 1,12,-1
 1222 1845 l 1,13,-1
 1004 1845 l 1,14,-1
 1004 1521 l 1,15,-1
 896 1521 l 1,16,-1
 896 1845 l 1,17,-1
 680 1845 l 1,18,-1
 680 1521 l 1,19,-1
 570 1521 l 1,20,-1
 570 1899 l 2,21,22
 570 1946 570 1946 570 1953 c 1,0,1
138 1411 m 1,23,-1
 1222 1411 l 1,24,-1
 1438 1195 l 1,25,-1
 1438 112 l 1,26,-1
 138 112 l 1,27,-1
 138 1357 l 2,28,29
 138 1406 138 1406 138 1411 c 1,23,-1
246 1303 m 1,30,-1
 246 220 l 1,31,-1
 462 220 l 1,32,-1
 462 654 l 1,33,-1
 1114 654 l 1,34,-1
 1114 220 l 1,35,-1
 1330 220 l 1,36,-1
 1330 1150 l 1,37,-1
 1177 1303 l 1,38,-1
 1114 1303 l 1,39,-1
 1114 870 l 1,40,-1
 462 870 l 1,41,-1
 462 1303 l 1,42,-1
 354 1303 l 2,43,44
 259 1303 259 1303 246 1303 c 1,30,-1
570 1303 m 1,45,-1
 570 978 l 1,46,-1
 788 978 l 1,47,-1
 788 1303 l 1,48,-1
 680 1303 l 2,49,50
 585 1303 585 1303 570 1303 c 1,45,-1
570 544 m 1,51,-1
 570 220 l 1,52,-1
 1004 220 l 1,53,-1
 1004 544 l 1,54,-1
 788 544 l 2,55,56
 599 544 599 544 570 544 c 1,51,-1
EndSplineSet
EndChar

StartChar: F
Encoding: 70 70 18
Width: 2047
GlyphClass: 2
Flags: W
HStem: 213 102<249 454 557 1068> 931 101<557 1068> 1237 102<658 1057> 1750 102<249 557 658 1057 1376 1405>
VStem: 146 103<315 1750> 454 103<315 931> 557 101<1339 1750> 1057 319<1339 1750> 1682 102<1134 1473>
LayerCount: 2
Fore
SplineSet
146 1852 m 1,0,-1
 1446 1852 l 1,1,-1
 1446 1851 l 1,2,-1
 1448 1852 l 1,3,-1
 1784 1514 l 1,4,-1
 1784 1134 l 1,5,-1
 1682 1134 l 1,6,-1
 1682 1473 l 1,7,-1
 1405 1750 l 1,8,-1
 1376 1750 l 1,9,-1
 1376 1237 l 1,10,-1
 557 1237 l 1,11,-1
 557 1750 l 1,12,-1
 249 1750 l 1,13,-1
 249 315 l 1,14,-1
 454 315 l 1,15,-1
 454 1032 l 1,16,-1
 1068 1032 l 1,17,-1
 1068 931 l 1,18,-1
 557 931 l 1,19,-1
 557 315 l 1,20,-1
 1068 315 l 1,21,-1
 1068 213 l 1,22,-1
 146 213 l 1,23,-1
 146 1852 l 1,0,-1
658 1750 m 1,24,-1
 658 1339 l 1,25,-1
 1057 1339 l 1,26,-1
 1057 1750 l 1,27,-1
 857 1750 l 2,28,29
 683 1750 683 1750 658 1750 c 1,24,-1
1784 1032 m 1,30,-1
 1990 828 l 1,31,-1
 1887 726 l 1,32,-1
 1754 859 l 1,33,-1
 1243 348 l 1,34,-1
 1304 286 l 1,35,-1
 1815 798 l 1,36,-1
 1887 726 l 1,37,-1
 1376 213 l 1,38,-1
 1378 213 l 1,39,-1
 1376 213 l 1,40,-1
 1171 213 l 1,41,-1
 1171 418 l 1,42,-1
 1171 420 l 1,43,-1
 1734 981 l 2,44,45
 1779 1026 1779 1026 1784 1032 c 1,30,-1
EndSplineSet
EndChar

StartChar: G
Encoding: 71 71 19
Width: 2047
GlyphClass: 2
Flags: W
HStem: 213 102<249 454 557 1068> 931 101<557 1068> 1237 102<658 1057> 1750 102<249 557 658 1057 1376 1405>
VStem: 146 103<315 1750> 454 103<315 931> 557 101<1339 1750> 1057 319<1339 1750> 1682 102<1134 1473>
LayerCount: 2
Fore
SplineSet
146 1852 m 1,0,-1
 1446 1852 l 1,1,-1
 1446 1851 l 1,2,-1
 1448 1852 l 1,3,-1
 1784 1514 l 1,4,-1
 1784 1134 l 1,5,-1
 1682 1134 l 1,6,-1
 1682 1473 l 1,7,-1
 1405 1750 l 1,8,-1
 1376 1750 l 1,9,-1
 1376 1237 l 1,10,-1
 557 1237 l 1,11,-1
 557 1750 l 1,12,-1
 249 1750 l 1,13,-1
 249 315 l 1,14,-1
 454 315 l 1,15,-1
 454 1032 l 1,16,-1
 1068 1032 l 1,17,-1
 1068 931 l 1,18,-1
 557 931 l 1,19,-1
 557 315 l 1,20,-1
 1068 315 l 1,21,-1
 1068 213 l 1,22,-1
 146 213 l 1,23,-1
 146 1852 l 1,0,-1
658 1750 m 1,24,-1
 658 1339 l 1,25,-1
 1057 1339 l 1,26,-1
 1057 1750 l 1,27,-1
 857 1750 l 2,28,29
 683 1750 683 1750 658 1750 c 1,24,-1
1784 1032 m 1,30,-1
 1990 828 l 1,31,-1
 1887 726 l 1,32,-1
 1754 859 l 1,33,-1
 1243 348 l 1,34,-1
 1304 286 l 1,35,-1
 1815 798 l 1,36,-1
 1887 726 l 1,37,-1
 1376 213 l 1,38,-1
 1378 213 l 1,39,-1
 1376 213 l 1,40,-1
 1171 213 l 1,41,-1
 1171 418 l 1,42,-1
 1171 420 l 1,43,-1
 1734 981 l 2,44,45
 1779 1026 1779 1026 1784 1032 c 1,30,-1
EndSplineSet
EndChar

StartChar: H
Encoding: 72 72 20
Width: 2042
GlyphClass: 2
Flags: W
HStem: 110 1843<626 1410>
VStem: 96 1844<639 1424>
LayerCount: 2
Fore
SplineSet
1018 1953 m 129,-1,1
 1410 1953 1410 1953 1675 1688.5 c 128,-1,2
 1940 1424 1940 1424 1940 1032 c 1,3,4
 1940 639 1940 639 1675 374.5 c 128,-1,5
 1410 110 1410 110 1018 110 c 129,-1,6
 626 110 626 110 361 374.5 c 128,-1,7
 96 639 96 639 96 1032 c 1,8,9
 96 1424 96 1424 361 1688.5 c 128,-1,0
 626 1953 626 1953 1018 1953 c 129,-1,1
638 1492 m 1,10,-1
 557 1411 l 1,11,-1
 937 1032 l 1,12,-1
 557 652 l 1,13,-1
 638 571 l 1,14,-1
 1018 951 l 1,15,-1
 1398 571 l 1,16,-1
 1479 652 l 1,17,-1
 1099 1032 l 1,18,-1
 1479 1411 l 1,19,-1
 1398 1492 l 1,20,-1
 1018 1113 l 1,21,-1
 829 1303 l 2,22,23
 662 1469 662 1469 638 1492 c 1,10,-1
EndSplineSet
EndChar

StartChar: I
Encoding: 73 73 21
Width: 1906
GlyphClass: 2
Flags: W
HStem: 110 115<263 954> 1838 115<263 1645>
VStem: 148 115<225 1838> 1645 115<801 1838>
LayerCount: 2
Fore
SplineSet
148 1953 m 1,0,1
 148 1953 148 1953 1760 1953 c 1,2,-1
 1760 801 l 1,3,-1
 1645 801 l 1,4,-1
 1645 1838 l 1,5,-1
 263 1838 l 1,6,-1
 263 225 l 1,7,-1
 954 225 l 1,8,-1
 954 110 l 1,9,-1
 148 110 l 1,10,-1
 148 1032 l 2,11,12
 148 1838 148 1838 148 1953 c 1,0,1
1265 686 m 1,13,14
 1265 686 1265 686 1472 479 c 1,15,-1
 1679 686 l 1,16,-1
 1760 605 l 1,17,-1
 1553 398 l 1,18,-1
 1760 191 l 1,19,-1
 1679 110 l 1,20,-1
 1472 317 l 1,21,-1
 1265 110 l 1,22,-1
 1184 191 l 1,23,-1
 1391 398 l 1,24,-1
 1184 605 l 1,25,-1
 1226 645 l 2,26,27
 1260 681 1260 681 1265 686 c 1,13,14
EndSplineSet
EndChar

StartChar: J
Encoding: 74 74 22
Width: 2099
GlyphClass: 2
Flags: W
HStem: 110 115<698 1390> 456 345<468 583 698 1390 1505 1620> 456 115<238 468 1620 1850> 1032 115<1390 1735> 1262 230<583 1505> 1262 115<238 353 468 583 1505 1620 1735 1850> 1608 115<583 1505> 1838 115<468 1620>
VStem: 122 116<571 1262> 353 115<1377 1838> 583 115<225 456> 1390 115<225 456> 1620 115<1377 1838> 1850 116<571 1262>
LayerCount: 2
Fore
SplineSet
353 1953 m 1,0,1
 1735 1953 l 1,2,-1
 1735 1377 l 1,3,-1
 1966 1377 l 1,4,-1
 1966 456 l 1,5,-1
 1505 456 l 1,6,-1
 1505 110 l 1,7,-1
 583 110 l 1,8,-1
 583 456 l 1,9,-1
 122 456 l 1,10,-1
 122 1377 l 1,11,-1
 353 1377 l 1,12,-1
 353 1896 l 2,13,14
 353 1946 353 1946 353 1953 c 1,0,1
468 1838 m 1,15,-1
 468 1377 l 1,16,-1
 583 1377 l 1,17,-1
 583 1492 l 1,18,-1
 1505 1492 l 1,19,-1
 1505 1377 l 1,20,-1
 1620 1377 l 1,21,-1
 1620 1838 l 1,22,-1
 1044 1838 l 2,23,24
 540 1838 540 1838 468 1838 c 1,15,-1
583 1723 m 1,25,-1
 1505 1723 l 1,26,-1
 1505 1608 l 1,27,-1
 583 1608 l 1,28,-1
 583 1665 l 2,29,30
 583 1716 583 1716 583 1723 c 1,25,-1
238 1262 m 1,31,-1
 238 571 l 1,32,-1
 468 571 l 1,33,-1
 468 801 l 1,34,-1
 1620 801 l 1,35,-1
 1620 571 l 1,36,-1
 1850 571 l 1,37,-1
 1850 1262 l 1,38,-1
 1044 1262 l 2,39,40
 338 1262 338 1262 238 1262 c 1,31,-1
1390 1147 m 1,41,-1
 1735 1147 l 1,42,-1
 1735 1032 l 1,43,-1
 1390 1032 l 1,44,-1
 1390 1089 l 2,45,46
 1390 1140 1390 1140 1390 1147 c 1,41,-1
698 456 m 1,47,-1
 698 225 l 1,48,-1
 1390 225 l 1,49,-1
 1390 456 l 1,50,-1
 1044 456 l 2,51,52
 742 456 742 456 698 456 c 1,47,-1
EndSplineSet
EndChar

StartChar: K
Encoding: 75 75 23
Width: 2042
GlyphClass: 2
Flags: W
HStem: 110 115<755.191 1295.33> 1377 231<903 1133> 1838 115<740.675 1295.44>
VStem: 96 116<754.357 1294.78> 903 230<456 1262 1377 1608> 1824 116<768.888 1309.43>
CounterMasks: 1 1c
LayerCount: 2
Fore
SplineSet
1018 1953 m 129,-1,1
 1410 1953 1410 1953 1675 1688.5 c 128,-1,2
 1940 1424 1940 1424 1940 1032 c 1,3,4
 1940 639 1940 639 1675 374.5 c 128,-1,5
 1410 110 1410 110 1018 110 c 129,-1,6
 626 110 626 110 361 374.5 c 128,-1,7
 96 639 96 639 96 1032 c 1,8,9
 96 1424 96 1424 361 1688.5 c 128,-1,0
 626 1953 626 1953 1018 1953 c 129,-1,1
1018 1838 m 129,-1,11
 674 1838 674 1838 443 1606.5 c 128,-1,12
 212 1375 212 1375 212 1032 c 1,13,14
 212 688 212 688 443 456.5 c 128,-1,15
 674 225 674 225 1018 225 c 129,-1,16
 1362 225 1362 225 1593 456.5 c 128,-1,17
 1824 688 1824 688 1824 1032 c 1,18,19
 1824 1375 1824 1375 1593 1606.5 c 128,-1,10
 1362 1838 1362 1838 1018 1838 c 129,-1,11
903 1608 m 1,20,-1
 1133 1608 l 1,21,-1
 1133 1377 l 1,22,-1
 903 1377 l 1,23,-1
 903 1492 l 2,24,25
 903 1593 903 1593 903 1608 c 1,20,-1
903 1262 m 1,26,-1
 1133 1262 l 1,27,-1
 1133 456 l 1,28,-1
 903 456 l 1,29,-1
 903 859 l 2,30,31
 903 1212 903 1212 903 1262 c 1,26,-1
EndSplineSet
EndChar

StartChar: L
Encoding: 76 76 24
Width: 2036
GlyphClass: 2
Flags: W
HStem: 213 102<339.314 662.135 1363.44 1684.15> 929 103<337.973 662.63 1359.86 1686.53>
VStem: 90 101<461.578 782.074> 807 102<213 351 462.963 785.048 893 1032> 1113 102<213 351 460.781 781.898 893 1442> 1831 103<464.961 783.649>
LayerCount: 2
Fore
SplineSet
1113 1442 m 1,0,1
 1113 1442 1113 1442 1215 1442 c 1,2,-1
 1215 893 l 1,3,4
 1275 960 1275 960 1354 996 c 128,-1,5
 1433 1032 1433 1032 1523 1032 c 0,6,7
 1698 1032 1698 1032 1816 914 c 128,-1,8
 1934 796 1934 796 1934 623 c 1,9,10
 1934 448 1934 448 1816 330.5 c 128,-1,11
 1698 213 1698 213 1523 213 c 0,12,13
 1433 213 1433 213 1354 249 c 128,-1,14
 1275 285 1275 285 1215 351 c 1,15,-1
 1215 213 l 1,16,-1
 1113 213 l 1,17,-1
 1113 1032 l 2,18,19
 1113 1390 1113 1390 1113 1442 c 1,0,1
499 1032 m 0,20,21
 589 1032 589 1032 668 996 c 128,-1,22
 747 960 747 960 807 893 c 1,23,-1
 807 1032 l 1,24,-1
 909 1032 l 1,25,-1
 909 213 l 1,26,-1
 807 213 l 1,27,-1
 807 351 l 1,28,29
 747 285 747 285 668 249 c 128,-1,30
 589 213 589 213 499 213 c 0,31,32
 324 213 324 213 207 330.5 c 128,-1,33
 90 448 90 448 90 623 c 1,34,35
 90 796 90 796 207 914 c 128,-1,36
 324 1032 324 1032 499 1032 c 0,20,21
499 929 m 1,37,38
 369 929 369 929 280 841 c 128,-1,39
 191 753 191 753 191 623 c 1,40,41
 191 492 191 492 280 403.5 c 128,-1,42
 369 315 369 315 499 315 c 1,43,44
 630 315 630 315 718.5 403.5 c 128,-1,45
 807 492 807 492 807 623 c 1,46,47
 807 753 807 753 718.5 841 c 128,-1,48
 630 929 630 929 499 929 c 1,37,38
1523 929 m 1,49,50
 1392 929 1392 929 1303.5 841 c 128,-1,51
 1215 753 1215 753 1215 623 c 1,52,53
 1215 492 1215 492 1303.5 403.5 c 128,-1,54
 1392 315 1392 315 1523 315 c 1,55,56
 1653 315 1653 315 1742 403.5 c 128,-1,57
 1831 492 1831 492 1831 623 c 1,58,59
 1831 753 1831 753 1742 841 c 128,-1,60
 1653 929 1653 929 1523 929 c 1,49,50
1215 1851 m 1,61,-1
 1831 1851 l 1,62,-1
 1523 1442 l 1,63,-1
 1370 1645 l 2,64,65
 1235 1825 1235 1825 1215 1851 c 1,61,-1
EndSplineSet
EndChar

StartChar: M
Encoding: 77 77 25
Width: 1991
GlyphClass: 2
Flags: W
HStem: 281 88<1139 1716.24> 634 88<302 696> 810 88<1139 1610.61> 1253 88<1139 1609.26>
VStem: 1051 88<369 810 898 1253> 1668 90<954.601 1196.64> 1803 89<454.497 723.768>
LayerCount: 2
Fore
SplineSet
417 1341 m 1,0,1
 417 1341 417 1341 588 1341 c 1,2,-1
 963 281 l 1,3,-1
 862 281 l 1,4,-1
 731 634 l 1,5,-1
 270 634 l 1,6,-1
 138 281 l 1,7,-1
 48 281 l 1,8,-1
 234 810 l 2,9,10
 394 1275 394 1275 417 1341 c 1,0,1
1051 1341 m 1,11,-1
 1494 1341 l 1,12,13
 1607 1341 1607 1341 1682.5 1264.5 c 128,-1,14
 1758 1188 1758 1188 1758 1077 c 0,15,16
 1758 1021 1758 1021 1736.5 971.5 c 128,-1,17
 1715 922 1715 922 1676 884 c 1,18,19
 1775 852 1775 852 1833.5 772.5 c 128,-1,20
 1892 693 1892 693 1892 589 c 1,21,22
 1892.00292969 588.266601562 1892.00292969 588.266601562 1892.00292969 587.53515625 c 0,23,24
 1892.00292969 456.510742188 1892.00292969 456.510742188 1803 369 c 0,25,26
 1713.5 281 1713.5 281 1582 281 c 1,27,-1
 1051 281 l 1,28,-1
 1051 810 l 2,29,30
 1051 1275 1051 1275 1051 1341 c 1,11,-1
1139 1253 m 1,31,-1
 1139 898 l 1,32,-1
 1494 898 l 1,33,34
 1569 898 1569 898 1618.5 949.5 c 128,-1,35
 1668 1001 1668 1001 1668 1075.5 c 128,-1,36
 1668 1150 1668 1150 1618.5 1201.5 c 128,-1,37
 1569 1253 1569 1253 1494 1253 c 1,38,-1
 1317 1253 l 2,39,40
 1163 1253 1163 1253 1139 1253 c 1,31,-1
500 1249 m 1,41,-1
 302 722 l 1,42,-1
 696 722 l 1,43,-1
 599 987 l 2,44,45
 513 1217 513 1217 500 1249 c 1,41,-1
1139 810 m 1,46,-1
 1139 369 l 1,47,-1
 1582 369 l 1,48,49
 1676 369 1676 369 1739.5 432 c 128,-1,50
 1803 495 1803 495 1803 589 c 0,51,52
 1803 684 1803 684 1739.5 747 c 128,-1,53
 1676 810 1676 810 1582 810 c 1,54,-1
 1361 810 l 2,55,56
 1168 810 1168 810 1139 810 c 1,46,-1
1406 1784 m 1,57,-1
 1668 1429 l 1,58,-1
 1139 1429 l 1,59,-1
 1272 1606 l 2,60,61
 1389 1761 1389 1761 1406 1784 c 1,57,-1
EndSplineSet
EndChar

StartChar: N
Encoding: 78 78 26
Width: 2038
GlyphClass: 2
Flags: W
HStem: 110 115<138 1751> 456 115<138 1521> 801 115<138 1290> 1147 115<138 1060> 1492 116<138 828> 1838 115<138 597>
VStem: 1521 115<916 1734>
LayerCount: 2
Fore
SplineSet
1521 916 m 1,0,1
 1521 967 1521 967 1521 1325 c 2,2,-1
 1521 1734 l 1,3,-1
 1256 1469 l 1,4,-1
 1173 1550 l 1,5,-1
 1577 1953 l 1,6,-1
 1982 1550 l 1,7,-1
 1899 1469 l 1,8,-1
 1636 1734 l 1,9,-1
 1636 916 l 1,10,-1
 1521 916 l 1,0,1
138 110 m 1,11,12
 138 117 138 117 138 168 c 2,13,-1
 138 225 l 1,14,-1
 1751 225 l 1,15,-1
 1751 110 l 1,16,-1
 138 110 l 1,11,12
138 456 m 1,17,18
 138 463 138 463 138 513 c 2,19,-1
 138 571 l 1,20,-1
 1521 571 l 1,21,-1
 1521 456 l 1,22,-1
 138 456 l 1,17,18
138 801 m 1,23,24
 138 808 138 808 138 859 c 2,25,-1
 138 916 l 1,26,-1
 1290 916 l 1,27,-1
 1290 801 l 1,28,-1
 138 801 l 1,23,24
138 1953 m 1,29,30
 138 1953 138 1953 597 1953 c 1,31,-1
 597 1838 l 1,32,-1
 138 1838 l 1,33,-1
 138 1896 l 2,34,35
 138 1946 138 1946 138 1953 c 1,29,30
138 1608 m 1,36,-1
 828 1608 l 1,37,-1
 828 1492 l 1,38,-1
 138 1492 l 1,39,-1
 138 1550 l 2,40,41
 138 1600 138 1600 138 1608 c 1,36,-1
138 1262 m 1,42,-1
 1060 1262 l 1,43,-1
 1060 1147 l 1,44,-1
 138 1147 l 1,45,-1
 138 1204 l 2,46,47
 138 1255 138 1255 138 1262 c 1,42,-1
EndSplineSet
EndChar

StartChar: O
Encoding: 79 79 27
Width: 2046
GlyphClass: 2
Flags: W
HStem: 110 115<138 597> 456 115<138 828> 801 115<138 1060> 1147 115<138 1290> 1492 116<138 1521> 1838 115<138 1751>
VStem: 1521 115<330 1147>
LayerCount: 2
Fore
SplineSet
1521 1147 m 1,0,1
 1521 1147 1521 1147 1636 1147 c 1,2,-1
 1636 330 l 1,3,-1
 1899 594 l 1,4,-1
 1982 513 l 1,5,-1
 1577 110 l 1,6,-1
 1173 513 l 1,7,-1
 1256 594 l 1,8,-1
 1521 330 l 1,9,-1
 1521 738 l 2,10,11
 1521 1096 1521 1096 1521 1147 c 1,0,1
138 1953 m 1,12,-1
 1751 1953 l 1,13,-1
 1751 1838 l 1,14,-1
 138 1838 l 1,15,-1
 138 1896 l 2,16,17
 138 1946 138 1946 138 1953 c 1,12,-1
138 1608 m 1,18,-1
 1521 1608 l 1,19,-1
 1521 1492 l 1,20,-1
 138 1492 l 1,21,-1
 138 1550 l 2,22,23
 138 1600 138 1600 138 1608 c 1,18,-1
138 1262 m 1,24,-1
 1290 1262 l 1,25,-1
 1290 1147 l 1,26,-1
 138 1147 l 1,27,-1
 138 1204 l 2,28,29
 138 1255 138 1255 138 1262 c 1,24,-1
138 110 m 1,30,31
 138 117 138 117 138 168 c 2,32,-1
 138 225 l 1,33,-1
 597 225 l 1,34,-1
 597 110 l 1,35,-1
 138 110 l 1,30,31
138 456 m 1,36,37
 138 463 138 463 138 513 c 2,38,-1
 138 571 l 1,39,-1
 828 571 l 1,40,-1
 828 456 l 1,41,-1
 138 456 l 1,36,37
138 801 m 1,42,43
 138 808 138 808 138 859 c 2,44,-1
 138 916 l 1,45,-1
 1060 916 l 1,46,-1
 1060 801 l 1,47,-1
 138 801 l 1,42,43
EndSplineSet
EndChar

StartChar: P
Encoding: 80 80 28
Width: 1988
GlyphClass: 2
Flags: W
HStem: 110 21G<1829 1869> 571 115<553.604 1008.41> 1838 115<546.418 1009.26>
VStem: 86 116<1030.75 1486.4> 1354 115<1040.6 1493.58>
LayerCount: 2
Fore
SplineSet
778 1953 m 1,0,1
 1073 1953 1073 1953 1271 1755 c 128,-1,2
 1469 1557 1469 1557 1469 1262 c 0,3,4
 1469 1134 1469 1134 1425.5 1020 c 128,-1,5
 1382 906 1382 906 1305 816 c 1,6,-1
 1930 191 l 1,7,-1
 1849 110 l 1,8,-1
 1224 735 l 1,9,10
 1134 657 1134 657 1019.5 614 c 128,-1,11
 905 571 905 571 778 571 c 0,12,13
 482 571 482 571 284 769 c 128,-1,14
 86 967 86 967 86 1262 c 129,-1,15
 86 1557 86 1557 284 1755 c 128,-1,16
 482 1953 482 1953 778 1953 c 1,0,1
778 1838 m 1,17,18
 533 1838 533 1838 367.5 1672.5 c 128,-1,19
 202 1507 202 1507 202 1262 c 129,-1,20
 202 1017 202 1017 367.5 851.5 c 128,-1,21
 533 686 533 686 778 686 c 1,22,23
 1022 686 1022 686 1188 851.5 c 128,-1,24
 1354 1017 1354 1017 1354 1262 c 129,-1,25
 1354 1507 1354 1507 1188 1672.5 c 128,-1,26
 1022 1838 1022 1838 778 1838 c 1,17,18
EndSplineSet
EndChar

StartChar: Q
Encoding: 81 81 29
Width: 1999
GlyphClass: 2
Flags: W
HStem: 110 21G<1840 1880> 112 228<132.52 292.48 593.52 753.48 1054.52 1214.48> 571 115<564.604 1019.41> 1838 115<557.418 1020.26>
VStem: 97 116<1030.75 1486.4> 99 227<145.52 305.965> 560 227<145.52 305.965> 1021 227<145.52 305.965> 1365 115<1040.6 1493.58>
LayerCount: 2
Fore
SplineSet
789 1953 m 1,0,1
 1084 1953 1084 1953 1282 1755 c 128,-1,2
 1480 1557 1480 1557 1480 1262 c 0,3,4
 1480 1134 1480 1134 1436.5 1020 c 128,-1,5
 1393 906 1393 906 1316 816 c 1,6,-1
 1941 191 l 1,7,-1
 1860 112 l 1,8,-1
 1235 735 l 1,9,10
 1145 657 1145 657 1030.5 614 c 128,-1,11
 916 571 916 571 789 571 c 0,12,13
 493 571 493 571 296 769 c 128,-1,14
 99 967 99 967 99 1262 c 129,-1,15
 99 1557 99 1557 296 1755 c 128,-1,16
 493 1953 493 1953 789 1953 c 1,0,1
789 1838 m 1,17,18
 544 1838 544 1838 378.5 1672.5 c 128,-1,19
 213 1507 213 1507 213 1262 c 129,-1,20
 213 1017 213 1017 378.5 851.5 c 128,-1,21
 544 686 544 686 789 686 c 1,22,23
 1033 686 1033 686 1199 851.5 c 128,-1,24
 1365 1017 1365 1017 1365 1262 c 129,-1,25
 1365 1507 1365 1507 1199 1672.5 c 128,-1,26
 1033 1838 1033 1838 789 1838 c 1,17,18
213 340 m 0,27,28
 261 340 261 340 293.5 307 c 128,-1,29
 326 274 326 274 326 225.5 c 128,-1,30
 326 177 326 177 293.5 143.5 c 128,-1,31
 261 110 261 110 212.5 110 c 128,-1,32
 164 110 164 110 130.5 143.5 c 128,-1,33
 97 177 97 177 97 225.5 c 128,-1,34
 97 274 97 274 130.5 307 c 128,-1,35
 164 340 164 340 213 340 c 0,27,28
673 340 m 0,36,37
 722 340 722 340 754.5 307 c 128,-1,38
 787 274 787 274 787 225.5 c 128,-1,39
 787 177 787 177 754.5 143.5 c 128,-1,40
 722 110 722 110 673.5 110 c 128,-1,41
 625 110 625 110 592.5 143.5 c 128,-1,42
 560 177 560 177 560 225.5 c 128,-1,43
 560 274 560 274 592.5 307 c 128,-1,44
 625 340 625 340 673 340 c 0,36,37
1134 340 m 0,45,46
 1183 340 1183 340 1215.5 307 c 128,-1,47
 1248 274 1248 274 1248 225.5 c 128,-1,48
 1248 177 1248 177 1215.5 143.5 c 128,-1,49
 1183 110 1183 110 1134.5 110 c 128,-1,50
 1086 110 1086 110 1053.5 143.5 c 128,-1,51
 1021 177 1021 177 1021 225.5 c 128,-1,52
 1021 274 1021 274 1053.5 307 c 128,-1,53
 1086 340 1086 340 1134 340 c 0,45,46
EndSplineSet
EndChar

StartChar: R
Encoding: 82 82 30
Width: 1957
GlyphClass: 2
Flags: W
LayerCount: 2
Fore
SplineSet
133 1534 m 1,0,1
 133 1534 133 1534 974 693 c 1,2,-1
 1815 1534 l 1,3,-1
 1896 1453 l 1,4,-1
 974 531 l 1,5,-1
 52 1453 l 1,6,-1
 94 1492 l 2,7,8
 128 1528 128 1528 133 1534 c 1,0,1
EndSplineSet
EndChar

StartChar: S
Encoding: 83 83 31
Width: 1969
GlyphClass: 2
Flags: W
LayerCount: 2
Fore
SplineSet
133 531 m 1,0,1
 128 535 128 535 94 571 c 2,2,-1
 52 612 l 1,3,-1
 974 1534 l 1,4,-1
 1896 612 l 1,5,-1
 1815 531 l 1,6,-1
 974 1370 l 1,7,-1
 133 531 l 1,0,1
EndSplineSet
EndChar

StartChar: T
Encoding: 84 84 32
Width: 1111
GlyphClass: 2
Flags: W
HStem: 110 21G<111 150.978> 1933 20G<128 131>
LayerCount: 2
Fore
SplineSet
131 1953 m 5,0,1
 131 1953 131 1953 1052 1032 c 5,2,-1
 131 110 l 5,3,-1
 50 191 l 5,4,-1
 888 1032 l 5,5,-1
 50 1872 l 5,6,-1
 89 1912 l 6,7,8
 125 1948 125 1948 131 1953 c 5,0,1
EndSplineSet
EndChar

StartChar: U
Encoding: 85 85 33
Width: 1558
GlyphClass: 2
Flags: W
HStem: 110 115<533 946.095> 1492 116<269 946.916> 1933 20G<440.5 452>
VStem: 1340 115<625.431 1100.13>
LayerCount: 2
Fore
SplineSet
452 1953 m 1,0,1
 452 1953 452 1953 533 1872 c 1,2,-1
 269 1608 l 1,3,-1
 706 1608 l 1,4,5
 1025 1608 1025 1608 1240 1392.5 c 128,-1,6
 1455 1177 1455 1177 1455 859 c 1,7,8
 1455 540 1455 540 1240 325 c 128,-1,9
 1025 110 1025 110 706 110 c 1,10,-1
 533 110 l 1,11,-1
 533 225 l 1,12,-1
 706 225 l 1,13,14
 976 225 976 225 1158 407 c 128,-1,15
 1340 589 1340 589 1340 859 c 129,-1,16
 1340 1129 1340 1129 1158 1310.5 c 128,-1,17
 976 1492 976 1492 706 1492 c 1,18,-1
 269 1492 l 1,19,-1
 533 1228 l 1,20,-1
 452 1147 l 1,21,-1
 49 1550 l 1,22,-1
 263 1764 l 2,23,24
 429 1930 429 1930 452 1953 c 1,0,1
EndSplineSet
EndChar

StartChar: V
Encoding: 86 86 34
Width: 1564
GlyphClass: 2
Flags: W
HStem: 110 115<608.084 1022> 1492 116<608.905 1284> 1933 20G<1100 1103>
VStem: 100 115<617.53 1092.24>
LayerCount: 2
Fore
SplineSet
1103 1953 m 1,0,1
 1103 1953 1103 1953 1506 1550 c 1,2,-1
 1103 1147 l 1,3,-1
 1020 1228 l 1,4,-1
 1284 1492 l 1,5,-1
 849 1492 l 1,6,7
 579 1492 579 1492 397 1310.5 c 128,-1,8
 215 1129 215 1129 215 859 c 129,-1,9
 215 589 215 589 397 407 c 128,-1,10
 579 225 579 225 849 225 c 1,11,-1
 1022 225 l 1,12,-1
 1022 110 l 1,13,-1
 849 110 l 1,14,15
 530 110 530 110 315 325 c 128,-1,16
 100 540 100 540 100 859 c 1,17,18
 100 1177 100 1177 315 1392.5 c 128,-1,19
 530 1608 530 1608 849 1608 c 1,20,-1
 1284 1608 l 1,21,-1
 1020 1872 l 1,22,-1
 1061 1912 l 2,23,24
 1097 1948 1097 1948 1103 1953 c 1,0,1
EndSplineSet
EndChar

StartChar: W
Encoding: 87 87 35
Width: 2044
GlyphClass: 2
Flags: W
HStem: 112 115<741.244 1287.15> 1748 174.5<651.134 750.264> 1840 113<758.316 1296.76>
VStem: 97 116<755.034 1284.73> 1825 116<780.273 1310.42>
LayerCount: 2
Fore
SplineSet
1941 1033 m 0,0,1
 1941 907 1941 907 1909.5 793 c 128,-1,2
 1878 679 1878 679 1820 576 c 1,3,-1
 1415 983 l 1,4,-1
 1496 1064 l 1,5,-1
 1782 778 l 1,6,7
 1825 898 1825 898 1825 1033 c 1,8,9
 1825 1375 1825 1375 1594 1607.5 c 128,-1,10
 1363 1840 1363 1840 1019 1840 c 1,11,12
 918 1840 918 1840 824.5 1815.5 c 128,-1,13
 731 1791 731 1791 648 1748 c 1,14,-1
 564 1834 l 1,15,16
 664 1892 664 1892 779.5 1922.5 c 128,-1,17
 895 1953 895 1953 1019 1953 c 1,18,19
 1411 1953 1411 1953 1676 1689.5 c 128,-1,20
 1941 1426 1941 1426 1941 1033 c 0,0,1
1474 231 m 1,21,22
 1374 173 1374 173 1258.5 142.5 c 128,-1,23
 1143 112 1143 112 1019 112 c 0,24,25
 627 112 627 112 362 375.5 c 128,-1,26
 97 639 97 639 97 1033 c 0,27,28
 97 1158 97 1158 128.5 1272 c 128,-1,29
 160 1386 160 1386 218 1489 c 1,30,-1
 623 1084 l 1,31,-1
 542 1003 l 1,32,-1
 256 1287 l 1,33,34
 213 1167 213 1167 213 1033 c 1,35,36
 213 690 213 690 444 458.5 c 128,-1,37
 675 227 675 227 1019 227 c 1,38,39
 1222 227 1222 227 1390 317 c 1,40,-1
 1474 231 l 1,21,22
EndSplineSet
EndChar

StartChar: X
Encoding: 88 88 36
Width: 2078
GlyphClass: 2
Flags: W
HStem: 110 115<222 567 1489 1834> 340 116<452 798 1258 1604> 801 115<452 798 1258 1604> 1147 115<452 798 1258 1604> 1608 115<452 798 1258 1604> 1838 115<222 567 1489 1834>
VStem: 106 116<225 571 1492 1838> 337 115<456 801 1262 1608> 798 115<456 801 1262 1608> 1143 115<456 801 1262 1608> 1604 115<456 801 1262 1608> 1834 116<225 571 1492 1838>
LayerCount: 2
Fore
SplineSet
106 1953 m 1,0,1
 106 1953 106 1953 567 1953 c 1,2,-1
 567 1838 l 1,3,-1
 222 1838 l 1,4,-1
 222 1492 l 1,5,-1
 106 1492 l 1,6,-1
 106 1896 l 2,7,8
 106 1946 106 1946 106 1953 c 1,0,1
1489 1953 m 1,9,-1
 1950 1953 l 1,10,-1
 1950 1492 l 1,11,-1
 1834 1492 l 1,12,-1
 1834 1838 l 1,13,-1
 1489 1838 l 1,14,-1
 1489 1896 l 2,15,16
 1489 1946 1489 1946 1489 1953 c 1,9,-1
337 1723 m 1,17,-1
 913 1723 l 1,18,-1
 913 1147 l 1,19,-1
 337 1147 l 1,20,-1
 337 1435 l 2,21,22
 337 1687 337 1687 337 1723 c 1,17,-1
1143 1723 m 1,23,-1
 1719 1723 l 1,24,-1
 1719 1147 l 1,25,-1
 1143 1147 l 1,26,-1
 1143 1435 l 2,27,28
 1143 1687 1143 1687 1143 1723 c 1,23,-1
452 1608 m 1,29,-1
 452 1262 l 1,30,-1
 798 1262 l 1,31,-1
 798 1608 l 1,32,-1
 625 1608 l 2,33,34
 474 1608 474 1608 452 1608 c 1,29,-1
1258 1608 m 1,35,-1
 1258 1262 l 1,36,-1
 1604 1262 l 1,37,-1
 1604 1608 l 1,38,-1
 1431 1608 l 2,39,40
 1280 1608 1280 1608 1258 1608 c 1,35,-1
337 916 m 1,41,-1
 913 916 l 1,42,-1
 913 340 l 1,43,-1
 337 340 l 1,44,-1
 337 628 l 2,45,46
 337 880 337 880 337 916 c 1,41,-1
1143 916 m 1,47,-1
 1719 916 l 1,48,-1
 1719 340 l 1,49,-1
 1143 340 l 1,50,-1
 1143 628 l 2,51,52
 1143 880 1143 880 1143 916 c 1,47,-1
452 801 m 1,53,-1
 452 456 l 1,54,-1
 798 456 l 1,55,-1
 798 801 l 1,56,-1
 625 801 l 2,57,58
 474 801 474 801 452 801 c 1,53,-1
1258 801 m 1,59,-1
 1258 456 l 1,60,-1
 1604 456 l 1,61,-1
 1604 801 l 1,62,-1
 1431 801 l 2,63,64
 1280 801 1280 801 1258 801 c 1,59,-1
106 571 m 1,65,-1
 222 571 l 1,66,-1
 222 225 l 1,67,-1
 567 225 l 1,68,-1
 567 110 l 1,69,-1
 106 110 l 1,70,-1
 106 340 l 2,71,72
 106 542 106 542 106 571 c 1,65,-1
1834 571 m 1,73,-1
 1950 571 l 1,74,-1
 1950 110 l 1,75,-1
 1489 110 l 1,76,-1
 1489 225 l 1,77,-1
 1834 225 l 1,78,-1
 1834 398 l 2,79,80
 1834 549 1834 549 1834 571 c 1,73,-1
EndSplineSet
EndChar

StartChar: Y
Encoding: 89 89 37
Width: 1747
GlyphClass: 2
Flags: W
HStem: 110 115<407 1329> 1492 116<62 1674> 1723 230<522 638 1098 1214> 1838 115<638 1098>
VStem: 292 115<225 1377> 522 116<1723 1838> 1098 116<1723 1838> 1329 115<225 1377>
LayerCount: 2
Fore
SplineSet
522 1953 m 1,0,1
 1214 1953 l 1,2,-1
 1214 1723 l 1,3,-1
 1098 1723 l 1,4,-1
 1098 1838 l 1,5,-1
 638 1838 l 1,6,-1
 638 1723 l 1,7,-1
 522 1723 l 1,8,-1
 522 1838 l 2,9,10
 522 1939 522 1939 522 1953 c 1,0,1
62 1608 m 1,11,-1
 1674 1608 l 1,12,-1
 1674 1492 l 1,13,-1
 62 1492 l 1,14,-1
 62 1550 l 2,15,16
 62 1600 62 1600 62 1608 c 1,11,-1
292 1377 m 1,17,-1
 407 1377 l 1,18,-1
 407 225 l 1,19,-1
 1329 225 l 1,20,-1
 1329 1377 l 1,21,-1
 1444 1377 l 1,22,-1
 1444 110 l 1,23,-1
 292 110 l 1,24,-1
 292 744 l 2,25,26
 292 1298 292 1298 292 1377 c 1,17,-1
EndSplineSet
EndChar

StartChar: Z
Encoding: 90 90 38
Width: 1894
GlyphClass: 2
Flags: W
HStem: 110 115<719 1179> 340 116<258 603> 1492 116<719 1410 1525 1640> 1838 115<258 1410>
VStem: 143 115<456 1838> 603 116<225 340 456 1492> 1410 115<1608 1838> 1640 115<686 1492>
LayerCount: 2
Fore
SplineSet
143 1953 m 1,0,1
 143 1953 143 1953 1525 1953 c 1,2,-1
 1525 1608 l 1,3,-1
 1755 1608 l 1,4,-1
 1755 571 l 1,5,-1
 1295 110 l 1,6,-1
 603 110 l 1,7,-1
 603 340 l 1,8,-1
 143 340 l 1,9,-1
 143 1896 l 2,10,11
 143 1946 143 1946 143 1953 c 1,0,1
258 1838 m 1,12,-1
 258 456 l 1,13,-1
 603 456 l 1,14,-1
 603 1608 l 1,15,-1
 1410 1608 l 1,16,-1
 1410 1838 l 1,17,-1
 834 1838 l 2,18,19
 330 1838 330 1838 258 1838 c 1,12,-1
719 1492 m 1,20,-1
 719 225 l 1,21,-1
 1179 225 l 1,22,-1
 1179 686 l 1,23,-1
 1640 686 l 1,24,-1
 1640 1492 l 1,25,-1
 1179 1492 l 2,26,27
 776 1492 776 1492 719 1492 c 1,20,-1
EndSplineSet
EndChar

StartChar: a
Encoding: 97 97 39
Width: 1772
GlyphClass: 2
Flags: W
HStem: 110 117<235.634 470.398 1273.6 1506.99> 571 115<237.013 471.272 1273.32 1506.79> 1933 20G<387 413 1321.3 1359>
VStem: 66 117<279.742 516.712> 525 117<280.025 484.981> 1102 117<281.33 485.98> 1561 117<280.025 516.712>
LayerCount: 2
Fore
SplineSet
413 1953 m 1,0,1
 413 1953 413 1953 872 1165 c 1,2,-1
 1333 1953 l 1,3,4
 1385 1874 1385 1874 1401 1838 c 0,5,6
 1404 1829 1404 1829 1404 1818 c 0,7,8
 1404 1783 1404 1783 1367 1723 c 2,9,-1
 960 1015 l 1,10,-1
 1196 610 l 1,11,12
 1236 645 1236 645 1284.5 665.5 c 128,-1,13
 1333 686 1333 686 1390 686 c 0,14,15
 1513 686 1513 686 1595.5 603 c 128,-1,16
 1678 520 1678 520 1678 398 c 129,-1,17
 1678 276 1678 276 1595.5 193 c 128,-1,18
 1513 110 1513 110 1390 110 c 1,19,20
 1268 110 1268 110 1185 194 c 128,-1,21
 1102 278 1102 278 1102 398 c 0,22,23
 1102 429 1102 429 1108 456 c 1,24,-1
 924 776 l 1,25,26
 888 771 888 771 861 728.5 c 128,-1,27
 834 686 834 686 769 686 c 1,28,-1
 636 454 l 1,29,30
 642 427 642 427 642 398 c 0,31,32
 642 276 642 276 559 193 c 128,-1,33
 476 110 476 110 354 110 c 1,34,35
 231 110 231 110 148.5 194 c 128,-1,36
 66 278 66 278 66 398 c 1,37,38
 66 520 66 520 148.5 603 c 128,-1,39
 231 686 231 686 354 686 c 0,40,41
 411 686 411 686 460.5 665.5 c 128,-1,42
 510 645 510 645 548 609 c 1,43,-1
 786 1015 l 1,44,-1
 379 1723 l 2,45,46
 342 1783 342 1783 342 1818 c 0,47,48
 342 1829 342 1829 345 1838 c 0,49,50
 361 1874 361 1874 413 1953 c 1,0,1
872 1032 m 128,-1,52
 847 1032 847 1032 830.5 1015.5 c 128,-1,53
 814 999 814 999 814 974 c 128,-1,54
 814 949 814 949 830.5 932.5 c 128,-1,55
 847 916 847 916 872 916 c 128,-1,56
 897 916 897 916 913.5 932.5 c 128,-1,57
 930 949 930 949 930 974 c 128,-1,58
 930 999 930 999 913.5 1015.5 c 128,-1,51
 897 1032 897 1032 872 1032 c 128,-1,52
354 571 m 0,59,60
 280 571 280 571 231.5 521.5 c 128,-1,61
 183 472 183 472 183 398 c 128,-1,62
 183 324 183 324 231.5 275.5 c 128,-1,63
 280 227 280 227 353.5 227 c 128,-1,64
 427 227 427 227 476 275.5 c 128,-1,65
 525 324 525 324 525 398 c 128,-1,66
 525 472 525 472 476 521.5 c 128,-1,67
 427 571 427 571 354 571 c 0,59,60
1390 571 m 0,68,69
 1317 571 1317 571 1268 521.5 c 128,-1,70
 1219 472 1219 472 1219 398 c 128,-1,71
 1219 324 1219 324 1268 275.5 c 128,-1,72
 1317 227 1317 227 1390.5 227 c 128,-1,73
 1464 227 1464 227 1512.5 275.5 c 128,-1,74
 1561 324 1561 324 1561 398 c 128,-1,75
 1561 472 1561 472 1512.5 521.5 c 128,-1,76
 1464 571 1464 571 1390 571 c 0,68,69
EndSplineSet
EndChar

StartChar: b
Encoding: 98 98 40
Width: 1918
GlyphClass: 2
Flags: W
HStem: 110 115<263 1645> 456 115<493 839> 801 115<493 1184> 1147 115<493 1415> 1377 576<493 1415> 1377 346<378 493 1415 1530> 1608 115<263 378 1530 1645>
VStem: 148 115<225 1608> 1645 115<225 1608>
LayerCount: 2
Fore
SplineSet
493 1953 m 1,0,1
 1415 1953 l 1,2,-1
 1415 1723 l 1,3,-1
 1760 1723 l 1,4,-1
 1760 110 l 1,5,-1
 148 110 l 1,6,-1
 148 1723 l 1,7,-1
 493 1723 l 1,8,-1
 493 1838 l 2,9,10
 493 1939 493 1939 493 1953 c 1,0,1
263 1608 m 1,11,-1
 263 225 l 1,12,-1
 1645 225 l 1,13,-1
 1645 1608 l 1,14,-1
 1530 1608 l 1,15,-1
 1530 1377 l 1,16,-1
 378 1377 l 1,17,-1
 378 1608 l 1,18,-1
 320 1608 l 2,19,20
 270 1608 270 1608 263 1608 c 1,11,-1
493 1262 m 1,21,-1
 1415 1262 l 1,22,-1
 1415 1147 l 1,23,-1
 493 1147 l 1,24,-1
 493 1204 l 2,25,26
 493 1255 493 1255 493 1262 c 1,21,-1
493 916 m 1,27,-1
 1184 916 l 1,28,-1
 1184 801 l 1,29,-1
 493 801 l 1,30,-1
 493 859 l 2,31,32
 493 909 493 909 493 916 c 1,27,-1
493 571 m 1,33,-1
 839 571 l 1,34,-1
 839 456 l 1,35,-1
 493 456 l 1,36,-1
 493 513 l 2,37,38
 493 564 493 564 493 571 c 1,33,-1
EndSplineSet
EndChar

StartChar: c
Encoding: 99 99 41
Width: 2035
GlyphClass: 2
Flags: W
HStem: 110 117<256.297 491.192> 340 116<643.666 1930> 571 115<257.601 491.192> 1608 115<86 795.257 1336.11 1930> 1933 20G<1012.5 1119>
VStem: 86 117<281.33 516.712>
LayerCount: 2
Fore
SplineSet
1066 1953 m 0,0,1
 1172 1953 1172 1953 1249.5 1888.5 c 128,-1,2
 1327 1824 1327 1824 1348 1723 c 1,3,-1
 1930 1723 l 1,4,-1
 1930 1608 l 1,5,-1
 1348 1608 l 1,6,7
 1327 1507 1327 1507 1249.5 1442 c 128,-1,8
 1172 1377 1172 1377 1066 1377 c 0,9,10
 959 1377 959 1377 882 1442 c 128,-1,11
 805 1507 805 1507 783 1608 c 1,12,-1
 86 1608 l 1,13,-1
 86 1723 l 1,14,-1
 783 1723 l 1,15,16
 805 1824 805 1824 882 1888.5 c 128,-1,17
 959 1953 959 1953 1066 1953 c 0,0,1
374 686 m 1,18,19
 481 686 481 686 558 621 c 128,-1,20
 635 556 635 556 657 456 c 1,21,-1
 1930 456 l 1,22,-1
 1930 340 l 1,23,-1
 657 340 l 1,24,25
 635 240 635 240 558 175 c 128,-1,26
 481 110 481 110 374 110 c 1,27,28
 252 110 252 110 169 194 c 128,-1,29
 86 278 86 278 86 398 c 1,30,31
 86 520 86 520 169 603 c 128,-1,32
 252 686 252 686 374 686 c 1,18,19
374 571 m 0,33,34
 301 571 301 571 252 521.5 c 128,-1,35
 203 472 203 472 203 398 c 128,-1,36
 203 324 203 324 252 275.5 c 128,-1,37
 301 227 301 227 374.5 227 c 128,-1,38
 448 227 448 227 496.5 275.5 c 128,-1,39
 545 324 545 324 545 398 c 128,-1,40
 545 472 545 472 496.5 521.5 c 128,-1,41
 448 571 448 571 374 571 c 0,33,34
EndSplineSet
EndChar

StartChar: d
Encoding: 100 100 42
Width: 1871
GlyphClass: 2
Flags: W
HStem: 655 159<509 1049> 727 243<1553.1 1724.42> 1219 243<1553.1 1724.42> 1710 243<1553.1 1724.42>
VStem: 1517 243<762.582 933.902 1254.07 1425.9 1745.58 1916.9>
LayerCount: 2
Fore
SplineSet
645 1831 m 1,0,1
 914 1831 l 1,2,-1
 1320 652 l 1,3,-1
 1335 603 l 1,4,-1
 1517 112 l 1,5,-1
 1313 112 l 1,6,-1
 1113 655 l 1,7,-1
 446 655 l 1,8,-1
 246 112 l 1,9,-1
 42 112 l 1,10,-1
 222 603 l 1,11,-1
 237 652 l 1,12,-1
 442 1242 l 2,13,14
 620 1757 620 1757 645 1831 c 1,0,1
780 1593 m 1,15,-1
 509 814 l 1,16,-1
 1049 814 l 1,17,-1
 915 1203 l 2,18,19
 797 1545 797 1545 780 1593 c 1,15,-1
1639 1953 m 128,-1,21
 1691 1953 1691 1953 1725.5 1918 c 128,-1,22
 1760 1883 1760 1883 1760 1831 c 128,-1,23
 1760 1779 1760 1779 1725.5 1744.5 c 128,-1,24
 1691 1710 1691 1710 1639 1710 c 128,-1,25
 1587 1710 1587 1710 1552 1744.5 c 128,-1,26
 1517 1779 1517 1779 1517 1831 c 128,-1,27
 1517 1883 1517 1883 1552 1918 c 128,-1,20
 1587 1953 1587 1953 1639 1953 c 128,-1,21
1639 1462 m 128,-1,29
 1691 1462 1691 1462 1725.5 1427 c 128,-1,30
 1760 1392 1760 1392 1760 1339.5 c 128,-1,31
 1760 1287 1760 1287 1725.5 1253 c 128,-1,32
 1691 1219 1691 1219 1639 1219 c 128,-1,33
 1587 1219 1587 1219 1552 1253 c 128,-1,34
 1517 1287 1517 1287 1517 1339.5 c 128,-1,35
 1517 1392 1517 1392 1552 1427 c 128,-1,28
 1587 1462 1587 1462 1639 1462 c 128,-1,29
1639 970 m 128,-1,37
 1691 970 1691 970 1725.5 935 c 128,-1,38
 1760 900 1760 900 1760 848 c 128,-1,39
 1760 796 1760 796 1725.5 761.5 c 128,-1,40
 1691 727 1691 727 1639 727 c 128,-1,41
 1587 727 1587 727 1552 761.5 c 128,-1,42
 1517 796 1517 796 1517 848 c 128,-1,43
 1517 900 1517 900 1552 935 c 128,-1,36
 1587 970 1587 970 1639 970 c 128,-1,37
EndSplineSet
EndChar

StartChar: e
Encoding: 101 101 43
Width: 1991
GlyphClass: 2
Flags: W
HStem: 646 98<970.078 1239.98> 1321 98<921.567 1081> 1419 95<803.858 1081 1114 1251.81>
VStem: 694 97<921.195 1191.27> 1369 97<872.947 1144.01>
LayerCount: 2
Fore
SplineSet
1785 1804 m 1,0,1
 1852 1735 l 1,2,-1
 377 261 l 1,3,-1
 309 328 l 1,4,-1
 1047 1066 l 2,5,6
 1691 1712 1691 1712 1785 1804 c 1,0,1
1081 1514 m 0,7,8
 1211 1514 1211 1514 1335 1480 c 1,9,-1
 1254 1399 l 1,10,11
 1184 1419 1184 1419 1114 1419 c 1,12,13
 1178 1412 1178 1412 1240 1383 c 1,14,-1
 1164 1309 l 1,15,16
 1123 1321 1123 1321 1081 1321 c 0,17,18
 957 1321 957 1321 874 1238.5 c 128,-1,19
 791 1156 791 1156 791 1032 c 0,20,21
 791 990 791 990 804 949 c 1,22,-1
 728 873 l 1,23,24
 694 949 694 949 694 1032 c 0,25,26
 694 1195 694 1195 805.5 1307 c 128,-1,27
 917 1419 917 1419 1081 1419 c 1,28,29
 835 1419 835 1419 631.5 1293.5 c 128,-1,30
 428 1168 428 1168 311 951 c 1,31,32
 266 976 266 976 241 1021 c 1,33,34
 372 1251 372 1251 593.5 1382.5 c 128,-1,35
 815 1514 815 1514 1081 1514 c 0,7,8
1601 1361 m 1,36,37
 1702 1296 1702 1296 1783 1210.5 c 128,-1,38
 1864 1125 1864 1125 1922 1021 c 1,39,40
 1895 978 1895 978 1850 951 c 1,41,42
 1794 1057 1794 1057 1714 1142.5 c 128,-1,43
 1634 1228 1634 1228 1531 1291 c 1,44,-1
 1567 1325 l 2,45,46
 1598 1356 1598 1356 1601 1361 c 1,36,37
1081 1226 m 1,47,-1
 887 1032 l 1,48,49
 887 1114 887 1114 942.5 1170 c 128,-1,50
 998 1226 998 1226 1081 1226 c 1,47,-1
1432 1190 m 1,51,52
 1466 1114 1466 1114 1466 1032 c 0,53,54
 1466 868 1466 868 1355.5 757 c 128,-1,55
 1245 646 1245 646 1081 646 c 0,56,57
 998 646 998 646 923 681 c 1,58,-1
 997 756 l 1,59,60
 1038 744 1038 744 1081 744 c 0,61,62
 1204 744 1204 744 1286.5 826.5 c 128,-1,63
 1369 909 1369 909 1369 1032 c 0,64,65
 1369 1075 1369 1075 1357 1116 c 1,66,-1
 1394 1154 l 2,67,68
 1427 1186 1427 1186 1432 1190 c 1,51,52
1274 1032 m 1,69,70
 1274 951 1274 951 1218 895 c 128,-1,71
 1162 839 1162 839 1081 839 c 1,72,-1
 1177 936 l 2,73,74
 1261 1021 1261 1021 1274 1032 c 1,69,70
116 839 m 2,75,-1
 80 513 l 2,76,77
 78 500 78 500 78 500 c 1,78,-1
 116 839 l 2,75,-1
EndSplineSet
EndChar

StartChar: f
Encoding: 102 102 44
Width: 2042
GlyphClass: 2
Flags: W
HStem: 110 1843<729.551 1306.45>
VStem: 96 1844<743.551 1319.86>
LayerCount: 2
Fore
SplineSet
1018 1953 m 1,0,1
 1454 1953 1454 1953 1697 1672.5 c 128,-1,2
 1940 1392 1940 1392 1940 1032 c 1,3,4
 1940 596 1940 596 1659 353 c 128,-1,5
 1378 110 1378 110 1018 110 c 1,6,7
 582 110 582 110 339 391 c 128,-1,8
 96 672 96 672 96 1032 c 1,9,10
 96 1467 96 1467 377 1710 c 128,-1,11
 658 1953 658 1953 1018 1953 c 1,0,1
EndSplineSet
EndChar

StartChar: g
Encoding: 103 103 45
Width: 2151
GlyphClass: 2
Flags: W
HStem: 110 1843<148 1992>
VStem: 148 1844<110 1953>
LayerCount: 2
Fore
SplineSet
148 1953 m 1,0,1
 148 1953 148 1953 1992 1953 c 1,2,-1
 1992 110 l 1,3,-1
 148 110 l 1,4,-1
 148 1032 l 2,5,6
 148 1838 148 1838 148 1953 c 1,0,1
EndSplineSet
EndChar

StartChar: h
Encoding: 104 104 46
Width: 1811
GlyphClass: 2
Flags: W
HStem: 110 21G<148 185.315> 1933 20G<148 148>
LayerCount: 2
Fore
SplineSet
148 1953 m 1,0,1
 148 1953 148 1953 1760 974 c 1,2,-1
 148 110 l 1,3,-1
 148 1032 l 2,4,5
 148 1838 148 1838 148 1953 c 1,0,1
EndSplineSet
EndChar

StartChar: i
Encoding: 105 105 47
Width: 2038
GlyphClass: 2
Flags: W
HStem: 571 115<437 1728.6> 1377 115<297.403 1589>
VStem: 91 116<1032 1285.83> 1819 116<777.168 1032>
LayerCount: 2
Fore
SplineSet
1589 1723 m 1,0,1
 1589 1723 1589 1723 1935 1424 c 1,2,-1
 1589 1147 l 1,3,-1
 1589 1377 l 1,4,-1
 437 1377 l 1,5,6
 338 1377 338 1377 272.5 1311.5 c 128,-1,7
 207 1246 207 1246 207 1147 c 1,8,-1
 207 1032 l 1,9,-1
 91 1032 l 1,10,-1
 91 1147 l 1,11,12
 91 1294 91 1294 190 1393 c 128,-1,13
 289 1492 289 1492 437 1492 c 1,14,-1
 1589 1492 l 1,15,-1
 1589 1631 l 2,16,17
 1589 1712 1589 1712 1589 1723 c 1,0,1
1819 1032 m 1,18,-1
 1935 1032 l 1,19,-1
 1935 916 l 1,20,21
 1935 769 1935 769 1836 670 c 128,-1,22
 1737 571 1737 571 1589 571 c 1,23,-1
 437 571 l 1,24,-1
 437 340 l 1,25,-1
 91 639 l 1,26,-1
 437 916 l 1,27,-1
 437 686 l 1,28,-1
 1589 686 l 1,29,30
 1688 686 1688 686 1753.5 751.5 c 128,-1,31
 1819 817 1819 817 1819 916 c 1,32,-1
 1819 974 l 2,33,34
 1819 1024 1819 1024 1819 1032 c 1,18,-1
EndSplineSet
EndChar

StartChar: j
Encoding: 106 106 48
Width: 2151
GlyphClass: 2
Flags: W
HStem: 110 21G<148 840 1300 1992> 1933 20G<148 840 1300 1992>
VStem: 148 692<110 1953> 1300 692<110 1953>
LayerCount: 2
Fore
SplineSet
148 1953 m 1,0,1
 148 1953 148 1953 840 1953 c 1,2,-1
 840 110 l 1,3,-1
 148 110 l 1,4,-1
 148 1032 l 2,5,6
 148 1838 148 1838 148 1953 c 1,0,1
1300 1953 m 1,7,-1
 1992 1953 l 1,8,-1
 1992 110 l 1,9,-1
 1300 110 l 1,10,-1
 1300 1032 l 2,11,12
 1300 1838 1300 1838 1300 1953 c 1,7,-1
EndSplineSet
EndChar

StartChar: k
Encoding: 107 107 49
Width: 2110
GlyphClass: 2
Flags: W
HStem: 110 230<1851 1967> 110 115<239 699 1736 1851> 686 230<1851 1967> 686 115<239 699> 1147 230<123 239 1851 1967> 1377 115<1045 1310> 1723 230<123 239 1851 1967> 1838 115<239 354 699 930 1160 1391 1736 1851>
VStem: 123 231<1838 1953> 123 116<225 686 1147 1377 1723 1838> 699 231<1838 1953> 699 116<225 686> 1160 231<1838 1953> 1391 115<1032 1296> 1736 231<110 225 1838 1953> 1851 116<225 340 686 916 1147 1377 1723 1838>
LayerCount: 2
Fore
SplineSet
123 1953 m 1,0,1
 354 1953 l 1,2,-1
 354 1838 l 1,3,-1
 239 1838 l 1,4,-1
 239 1723 l 1,5,-1
 123 1723 l 1,6,-1
 123 1838 l 2,7,8
 123 1939 123 1939 123 1953 c 1,0,1
699 1953 m 1,9,-1
 930 1953 l 1,10,-1
 930 1838 l 1,11,-1
 699 1838 l 1,12,-1
 699 1896 l 2,13,14
 699 1946 699 1946 699 1953 c 1,9,-1
1160 1953 m 1,15,-1
 1391 1953 l 1,16,-1
 1391 1838 l 1,17,-1
 1160 1838 l 1,18,-1
 1160 1896 l 2,19,20
 1160 1946 1160 1946 1160 1953 c 1,15,-1
1736 1953 m 1,21,-1
 1967 1953 l 1,22,-1
 1967 1723 l 1,23,-1
 1851 1723 l 1,24,-1
 1851 1838 l 1,25,-1
 1736 1838 l 1,26,-1
 1736 1896 l 2,27,28
 1736 1946 1736 1946 1736 1953 c 1,21,-1
1045 1492 m 1,29,-1
 1506 1492 l 1,30,-1
 1506 1032 l 1,31,-1
 1391 1032 l 1,32,-1
 1391 1296 l 1,33,-1
 1011 916 l 1,34,-1
 930 997 l 1,35,-1
 1310 1377 l 1,36,-1
 1045 1377 l 1,37,-1
 1045 1435 l 2,38,39
 1045 1485 1045 1485 1045 1492 c 1,29,-1
123 1377 m 1,40,-1
 239 1377 l 1,41,-1
 239 1147 l 1,42,-1
 123 1147 l 1,43,-1
 123 1262 l 2,44,45
 123 1363 123 1363 123 1377 c 1,40,-1
1851 1377 m 1,46,-1
 1967 1377 l 1,47,-1
 1967 1147 l 1,48,-1
 1851 1147 l 1,49,-1
 1851 1262 l 2,50,51
 1851 1363 1851 1363 1851 1377 c 1,46,-1
1851 916 m 1,52,-1
 1967 916 l 1,53,-1
 1967 686 l 1,54,-1
 1851 686 l 1,55,-1
 1851 801 l 2,56,57
 1851 902 1851 902 1851 916 c 1,52,-1
123 801 m 1,58,-1
 815 801 l 1,59,-1
 815 110 l 1,60,-1
 123 110 l 1,61,-1
 123 456 l 2,62,63
 123 758 123 758 123 801 c 1,58,-1
239 686 m 1,64,-1
 239 225 l 1,65,-1
 699 225 l 1,66,-1
 699 686 l 1,67,-1
 469 686 l 2,68,69
 267 686 267 686 239 686 c 1,64,-1
1851 340 m 1,70,-1
 1967 340 l 1,71,-1
 1967 110 l 1,72,-1
 1736 110 l 1,73,-1
 1736 225 l 1,74,-1
 1851 225 l 1,75,-1
 1851 283 l 2,76,77
 1851 333 1851 333 1851 340 c 1,70,-1
EndSplineSet
EndChar

StartChar: l
Encoding: 108 108 50
Width: 2135
GlyphClass: 2
Flags: W
HStem: 110 230<132 248 708 824> 110 115<248 363 593 708 1169 1860> 571 230<132 248 708 824> 686 115<248 363 593 708> 916 116<1135 1400> 1838 115<248 1860>
VStem: 132 231<110 225 686 801> 132 116<225 340 571 686 1147 1838> 593 231<110 225 686 801> 708 116<225 340 571 686> 939 115<1113 1377> 1860 116<225 1838>
LayerCount: 2
Fore
SplineSet
132 1953 m 1,0,1
 1976 1953 l 1,2,-1
 1976 110 l 1,3,-1
 1169 110 l 1,4,-1
 1169 225 l 1,5,-1
 1860 225 l 1,6,-1
 1860 1838 l 1,7,-1
 248 1838 l 1,8,-1
 248 1147 l 1,9,-1
 132 1147 l 1,10,-1
 132 1550 l 2,11,12
 132 1903 132 1903 132 1953 c 1,0,1
1434 1492 m 1,13,-1
 1515 1411 l 1,14,-1
 1135 1032 l 1,15,-1
 1400 1032 l 1,16,-1
 1400 916 l 1,17,-1
 939 916 l 1,18,-1
 939 1377 l 1,19,-1
 1054 1377 l 1,20,-1
 1054 1113 l 1,21,-1
 1243 1303 l 2,22,23
 1410 1469 1410 1469 1434 1492 c 1,13,-1
132 801 m 1,24,-1
 363 801 l 1,25,-1
 363 686 l 1,26,-1
 248 686 l 1,27,-1
 248 571 l 1,28,-1
 132 571 l 1,29,-1
 132 686 l 2,30,31
 132 787 132 787 132 801 c 1,24,-1
593 801 m 1,32,-1
 824 801 l 1,33,-1
 824 571 l 1,34,-1
 708 571 l 1,35,-1
 708 686 l 1,36,-1
 593 686 l 1,37,-1
 593 744 l 2,38,39
 593 794 593 794 593 801 c 1,32,-1
132 340 m 1,40,-1
 248 340 l 1,41,-1
 248 225 l 1,42,-1
 363 225 l 1,43,-1
 363 110 l 1,44,-1
 132 110 l 1,45,-1
 132 225 l 2,46,47
 132 326 132 326 132 340 c 1,40,-1
708 340 m 1,48,-1
 824 340 l 1,49,-1
 824 110 l 1,50,-1
 593 110 l 1,51,-1
 593 225 l 1,52,-1
 708 225 l 1,53,-1
 708 283 l 2,54,55
 708 333 708 333 708 340 c 1,48,-1
EndSplineSet
EndChar

StartChar: m
Encoding: 109 109 51
Width: 2030
GlyphClass: 2
Flags: W
HStem: 110 115<195 425 1577 1807> 340 116<425 1577> 1608 115<425 1577> 1838 115<195 425 1577 1807>
VStem: 79 116<225 456 1608 1838> 310 115<456 1608> 1577 115<456 1608> 1807 116<225 456 1608 1838>
LayerCount: 2
Fore
SplineSet
79 1953 m 1,0,1
 79 1953 79 1953 425 1953 c 1,2,-1
 425 1838 l 1,3,-1
 195 1838 l 1,4,-1
 195 1608 l 1,5,-1
 79 1608 l 1,6,-1
 79 1896 l 2,7,8
 79 1946 79 1946 79 1953 c 1,0,1
1577 1953 m 1,9,-1
 1923 1953 l 1,10,-1
 1923 1608 l 1,11,-1
 1807 1608 l 1,12,-1
 1807 1838 l 1,13,-1
 1577 1838 l 1,14,-1
 1577 1896 l 2,15,16
 1577 1946 1577 1946 1577 1953 c 1,9,-1
310 1723 m 1,17,-1
 1692 1723 l 1,18,-1
 1692 340 l 1,19,-1
 310 340 l 1,20,-1
 310 1032 l 2,21,22
 310 1636 310 1636 310 1723 c 1,17,-1
425 1608 m 1,23,-1
 425 456 l 1,24,-1
 1577 456 l 1,25,-1
 1577 1608 l 1,26,-1
 1001 1608 l 2,27,28
 497 1608 497 1608 425 1608 c 1,23,-1
79 456 m 1,29,-1
 195 456 l 1,30,-1
 195 225 l 1,31,-1
 425 225 l 1,32,-1
 425 110 l 1,33,-1
 79 110 l 1,34,-1
 79 340 l 2,35,36
 79 441 79 441 79 456 c 1,29,-1
1807 456 m 1,37,-1
 1923 456 l 1,38,-1
 1923 110 l 1,39,-1
 1577 110 l 1,40,-1
 1577 225 l 1,41,-1
 1807 225 l 1,42,-1
 1807 340 l 2,43,44
 1807 441 1807 441 1807 456 c 1,37,-1
EndSplineSet
EndChar

StartChar: colon
Encoding: 58 58 52
Width: 1948
VWidth: 0
Flags: W
HStem: 195 104<255 1689> 606 102<255 1689> 811 102<255 1689> 1220 103<255 1689> 1425 102<255 1689> 1835 102<255 1689>
VStem: 153 102<299 606 913 1220 1527 1835> 1689 102<299 606 913 1220 1527 1835>
LayerCount: 2
Fore
SplineSet
153 1937 m 1,0,-1
 1791 1937 l 1,1,-1
 1791 1425 l 1,2,-1
 153 1425 l 1,3,-1
 153 1937 l 1,0,-1
255 1835 m 1,4,-1
 255 1527 l 1,5,-1
 1689 1527 l 1,6,-1
 1689 1835 l 1,7,-1
 255 1835 l 1,4,-1
153 1323 m 1,8,-1
 1791 1323 l 1,9,-1
 1791 811 l 1,10,-1
 153 811 l 1,11,-1
 153 1323 l 1,8,-1
255 1220 m 1,12,-1
 255 913 l 1,13,-1
 1689 913 l 1,14,-1
 1689 1220 l 1,15,-1
 255 1220 l 1,12,-1
153 708 m 1,16,-1
 1791 708 l 1,17,-1
 1791 195 l 1,18,-1
 153 195 l 1,19,-1
 153 708 l 1,16,-1
255 606 m 1,20,-1
 255 299 l 1,21,-1
 1689 299 l 1,22,-1
 1689 606 l 1,23,-1
 255 606 l 1,20,-1
EndSplineSet
EndChar

StartChar: semicolon
Encoding: 59 59 53
Width: 1948
VWidth: 0
Flags: W
HStem: 279 93<322 1626> 1117 93<322 562> 1303 280<1068 1626> 1676 93<322 842>
VStem: 229 93<372 1117 1210 1676> 1626 93<372 1303>
LayerCount: 2
Fore
SplineSet
229 1769 m 1,0,-1
 322 1769 l 1,1,-1
 881 1769 l 1,2,-1
 881 1768 l 1,3,-1
 882 1769 l 1,4,-1
 1068 1583 l 1,5,-1
 1719 1583 l 1,6,-1
 1719 372 l 1,7,-1
 1719 279 l 1,8,-1
 322 279 l 1,9,-1
 229 279 l 1,10,-1
 229 1676 l 1,11,-1
 229 1769 l 1,0,-1
322 1676 m 1,12,-1
 322 1210 l 1,13,-1
 561 1210 l 1,14,-1
 562 1210 l 1,15,-1
 936 1582 l 1,16,-1
 842 1676 l 1,17,-1
 602 1676 l 1,18,-1
 322 1676 l 1,12,-1
789 1303 m 1,19,-1
 602 1117 l 1,20,-1
 602 1118 l 1,21,-1
 602 1117 l 1,22,-1
 468 1117 l 1,23,-1
 322 1117 l 1,24,-1
 322 372 l 1,25,-1
 1626 372 l 1,26,-1
 1626 1303 l 1,27,-1
 789 1303 l 1,19,-1
EndSplineSet
EndChar

StartChar: less
Encoding: 60 60 54
Width: 1804
Flags: W
HStem: 194.55 103.5<332.1 1679.4> 1756.95 103.5<332.1 1161>
VStem: 228.6 103.5<298.05 1756.95> 1575.9 103.5<298.95 1342.05>
LayerCount: 2
Fore
SplineSet
228.599609375 1860.45019531 m 1,0,1
 1265.40039062 1860.45019531 l 1,2,-1
 1266.29980469 1860.45019531 l 1,3,-1
 1679.40039062 1447.34960938 l 1,4,-1
 1679.40039062 298.950195312 l 1,5,-1
 1575.90039062 298.950195312 l 1,6,-1
 1575.90039062 1342.04980469 l 1,7,-1
 1161 1342.04980469 l 1,8,-1
 1161 1756.95019531 l 1,9,-1
 332.099609375 1756.95019531 l 1,10,-1
 332.099609375 298.049804688 l 1,11,-1
 1679.40039062 298.049804688 l 1,12,-1
 1679.40039062 194.549804688 l 1,13,-1
 228.599609375 194.549804688 l 1,14,-1
 228.599609375 1031.54980469 l 2,15,16
 228.599609375 1756.95019531 228.599609375 1756.95019531 228.599609375 1860.45019531 c 1,0,1
EndSplineSet
EndChar

StartChar: bracketleft
Encoding: 91 91 55
Width: 1111
Flags: W
HStem: 110 21G<971 974> 1933 20G<951.022 991>
LayerCount: 2
Fore
SplineSet
971 110 m 5,0,1
 971 110 971 110 50 1031 c 5,2,-1
 971 1953 l 5,3,-1
 1052 1872 l 5,4,-1
 214 1031 l 5,5,-1
 1052 191 l 5,6,-1
 1013 151 l 6,7,8
 977 115 977 115 971 110 c 5,0,1
EndSplineSet
EndChar
